<?xml version="1.0" encoding="UTF-8" standalone="no"?>
<!-- Created with Inkscape (http://www.inkscape.org/) -->

<svg
   version="1.1"
   id="svg2"
   width="828.15051"
   height="753.69635"
   viewBox="0 0 828.15051 753.69634"
   sodipodi:docname="vecteezy_dj-icons-symbol-vector-elements-for-infographic-web_8022313.svg"
   xmlns:inkscape="http://www.inkscape.org/namespaces/inkscape"
   xmlns:sodipodi="http://sodipodi.sourceforge.net/DTD/sodipodi-0.dtd"
   xmlns="http://www.w3.org/2000/svg"
   xmlns:svg="http://www.w3.org/2000/svg">
  <defs
     id="defs6" />
  <sodipodi:namedview
     id="namedview4"
     pagecolor="#ffffff"
     bordercolor="#000000"
     borderopacity="0.25"
     inkscape:showpageshadow="2"
     inkscape:pageopacity="0.0"
     inkscape:pagecheckerboard="0"
     inkscape:deskcolor="#d1d1d1"
     showgrid="false" />
  <g
     id="g8"
     inkscape:groupmode="layer"
     inkscape:label="ink_ext_XXXXXX"
     transform="matrix(1.3333333,0,0,-1.3333333,-1584.3969,1706.6697)">
    <g
       id="g10"
       transform="scale(0.1)">
      <path
         d="M 30000,0 H 0 V 20000 H 30000 V 0"
         style="fill-opacity:0;fill-rule:nonzero;stroke:none"
         id="path12" />
      <path
         d="m 24229,10345.2 c -73.8,0 -134.1,60.3 -134.1,134.1 0,74.1 60.3,134.1 134.1,134.1 74.1,0 134.1,-60 134.1,-134.1 0,-73.8 -60,-134.1 -134.1,-134.1 z m 0,390.8 c -141.4,0 -256.7,-115 -256.7,-256.7 0,-141.4 115.3,-256.7 256.7,-256.7 141.7,0 256.7,115.3 256.7,256.7 0,141.7 -115,256.7 -256.7,256.7 z m 0,-390.8 c -73.8,0 -134.1,60.3 -134.1,134.1 0,74.1 60.3,134.1 134.1,134.1 74.1,0 134.1,-60 134.1,-134.1 0,-73.8 -60,-134.1 -134.1,-134.1 z m 0,390.8 c -141.4,0 -256.7,-115 -256.7,-256.7 0,-141.4 115.3,-256.7 256.7,-256.7 141.7,0 256.7,115.3 256.7,256.7 0,141.7 -115,256.7 -256.7,256.7 z m 0,-390.8 c -73.8,0 -134.1,60.3 -134.1,134.1 0,74.1 60.3,134.1 134.1,134.1 74.1,0 134.1,-60 134.1,-134.1 0,-73.8 -60,-134.1 -134.1,-134.1 z m 0,390.8 c -141.4,0 -256.7,-115 -256.7,-256.7 0,-141.4 115.3,-256.7 256.7,-256.7 141.7,0 256.7,115.3 256.7,256.7 0,141.7 -115,256.7 -256.7,256.7 z m 0,-390.8 c -73.8,0 -134.1,60.3 -134.1,134.1 0,74.1 60.3,134.1 134.1,134.1 74.1,0 134.1,-60 134.1,-134.1 0,-73.8 -60,-134.1 -134.1,-134.1 z m 0,390.8 c -141.4,0 -256.7,-115 -256.7,-256.7 0,-141.4 115.3,-256.7 256.7,-256.7 141.7,0 256.7,115.3 256.7,256.7 0,141.7 -115,256.7 -256.7,256.7 z m 0,-390.8 c -73.8,0 -134.1,60.3 -134.1,134.1 0,74.1 60.3,134.1 134.1,134.1 74.1,0 134.1,-60 134.1,-134.1 0,-73.8 -60,-134.1 -134.1,-134.1 z m 0,390.8 c -141.4,0 -256.7,-115 -256.7,-256.7 0,-141.4 115.3,-256.7 256.7,-256.7 141.7,0 256.7,115.3 256.7,256.7 0,141.7 -115,256.7 -256.7,256.7 z m 0,-390.8 c -73.8,0 -134.1,60.3 -134.1,134.1 0,74.1 60.3,134.1 134.1,134.1 74.1,0 134.1,-60 134.1,-134.1 0,-73.8 -60,-134.1 -134.1,-134.1 z m 0,390.8 c -141.4,0 -256.7,-115 -256.7,-256.7 0,-141.4 115.3,-256.7 256.7,-256.7 141.7,0 256.7,115.3 256.7,256.7 0,141.7 -115,256.7 -256.7,256.7 z m 0,-827.6 c -314.6,0 -570.9,256.3 -570.9,570.9 0,314.9 256.3,570.9 570.9,570.9 314.9,0 570.9,-256 570.9,-570.9 0,-314.6 -256,-570.9 -570.9,-570.9 z m 0,1264.4 c -382.2,0 -693.5,-311 -693.5,-693.5 0,-382.2 311.3,-693.5 693.5,-693.5 382.5,0 693.5,311.3 693.5,693.5 0,382.5 -311,693.5 -693.5,693.5 z m 0,-827.6 c -73.8,0 -134.1,60.3 -134.1,134.1 0,74.1 60.3,134.1 134.1,134.1 74.1,0 134.1,-60 134.1,-134.1 0,-73.8 -60,-134.1 -134.1,-134.1 z m 0,390.8 c -141.4,0 -256.7,-115 -256.7,-256.7 0,-141.4 115.3,-256.7 256.7,-256.7 141.7,0 256.7,115.3 256.7,256.7 0,141.7 -115,256.7 -256.7,256.7 z m 0,-390.8 c -73.8,0 -134.1,60.3 -134.1,134.1 0,74.1 60.3,134.1 134.1,134.1 74.1,0 134.1,-60 134.1,-134.1 0,-73.8 -60,-134.1 -134.1,-134.1 z m 0,390.8 c -141.4,0 -256.7,-115 -256.7,-256.7 0,-141.4 115.3,-256.7 256.7,-256.7 141.7,0 256.7,115.3 256.7,256.7 0,141.7 -115,256.7 -256.7,256.7 z m 0,-390.8 c -73.8,0 -134.1,60.3 -134.1,134.1 0,74.1 60.3,134.1 134.1,134.1 74.1,0 134.1,-60 134.1,-134.1 0,-73.8 -60,-134.1 -134.1,-134.1 z m 0,390.8 c -141.4,0 -256.7,-115 -256.7,-256.7 0,-141.4 115.3,-256.7 256.7,-256.7 141.7,0 256.7,115.3 256.7,256.7 0,141.7 -115,256.7 -256.7,256.7 z m 0,-390.8 c -73.8,0 -134.1,60.3 -134.1,134.1 0,74.1 60.3,134.1 134.1,134.1 74.1,0 134.1,-60 134.1,-134.1 0,-73.8 -60,-134.1 -134.1,-134.1 z m 0,390.8 c -141.4,0 -256.7,-115 -256.7,-256.7 0,-141.4 115.3,-256.7 256.7,-256.7 141.7,0 256.7,115.3 256.7,256.7 0,141.7 -115,256.7 -256.7,256.7"
         style="fill:#282f39;fill-opacity:1;fill-rule:nonzero;stroke:none"
         id="path14" />
      <path
         d="m 24229,10345.2 c -73.8,0 -134.1,60.3 -134.1,134.1 0,74.1 60.3,134.1 134.1,134.1 74.1,0 134.1,-60 134.1,-134.1 0,-73.8 -60,-134.1 -134.1,-134.1 z m 0,390.8 c -141.4,0 -256.7,-115 -256.7,-256.7 0,-141.4 115.3,-256.7 256.7,-256.7 141.7,0 256.7,115.3 256.7,256.7 0,141.7 -115,256.7 -256.7,256.7"
         style="fill:#282f39;fill-opacity:1;fill-rule:nonzero;stroke:none"
         id="path16" />
      <path
         d="m 22938.4,9283.5 c -11.7,-9.9 -25.9,-15 -40.2,-15 -17,0 -34.3,7.4 -46.2,21.4 -285.7,330.1 -442.8,752.4 -442.8,1189.4 0,425.8 149.9,839.8 422.5,1166 21.6,26 60.3,29.4 86.3,7.6 26,-21.7 29.4,-60.3 7.8,-86.3 -254.2,-304.1 -394,-690.3 -394,-1087.3 0,-407.5 146.5,-801.6 412.9,-1109.3 22,-25.5 19.3,-64.2 -6.3,-86.5"
         style="fill:#282f39;fill-opacity:1;fill-rule:nonzero;stroke:none"
         id="path18" />
      <path
         d="m 23629.2,9299.6 c -11.3,-19.8 -32,-31.1 -53.4,-31.1 -10.1,0 -20.7,2.8 -30.1,8.1 -431.8,245.9 -699.7,706.6 -699.7,1202.7 0,484.4 246.3,925.1 659.2,1178.8 29,17.7 66.7,8.8 84.4,-20.2 17.7,-28.8 8.7,-66.5 -20.2,-84.2 -376.3,-231.4 -600.8,-633 -600.8,-1074.4 0,-452.2 244.3,-872.2 637.6,-1096 29.4,-16.8 39.7,-54.3 23,-83.7"
         style="fill:#282f39;fill-opacity:1;fill-rule:nonzero;stroke:none"
         id="path20" />
      <path
         d="m 24229,10345.2 c -73.8,0 -134.1,60.3 -134.1,134.1 0,74.1 60.3,134.1 134.1,134.1 74.1,0 134.1,-60 134.1,-134.1 0,-73.8 -60,-134.1 -134.1,-134.1 z m 0,390.8 c -141.4,0 -256.7,-115 -256.7,-256.7 0,-141.4 115.3,-256.7 256.7,-256.7 141.7,0 256.7,115.3 256.7,256.7 0,141.7 -115,256.7 -256.7,256.7 z m 0,-390.8 c -73.8,0 -134.1,60.3 -134.1,134.1 0,74.1 60.3,134.1 134.1,134.1 74.1,0 134.1,-60 134.1,-134.1 0,-73.8 -60,-134.1 -134.1,-134.1 z m 0,390.8 c -141.4,0 -256.7,-115 -256.7,-256.7 0,-141.4 115.3,-256.7 256.7,-256.7 141.7,0 256.7,115.3 256.7,256.7 0,141.7 -115,256.7 -256.7,256.7 z m 0,-390.8 c -73.8,0 -134.1,60.3 -134.1,134.1 0,74.1 60.3,134.1 134.1,134.1 74.1,0 134.1,-60 134.1,-134.1 0,-73.8 -60,-134.1 -134.1,-134.1 z m 0,390.8 c -141.4,0 -256.7,-115 -256.7,-256.7 0,-141.4 115.3,-256.7 256.7,-256.7 141.7,0 256.7,115.3 256.7,256.7 0,141.7 -115,256.7 -256.7,256.7 z m 0,-390.8 c -73.8,0 -134.1,60.3 -134.1,134.1 0,74.1 60.3,134.1 134.1,134.1 74.1,0 134.1,-60 134.1,-134.1 0,-73.8 -60,-134.1 -134.1,-134.1 z m 0,390.8 c -141.4,0 -256.7,-115 -256.7,-256.7 0,-141.4 115.3,-256.7 256.7,-256.7 141.7,0 256.7,115.3 256.7,256.7 0,141.7 -115,256.7 -256.7,256.7 z m 0,-390.8 c -73.8,0 -134.1,60.3 -134.1,134.1 0,74.1 60.3,134.1 134.1,134.1 74.1,0 134.1,-60 134.1,-134.1 0,-73.8 -60,-134.1 -134.1,-134.1 z m 0,390.8 c -141.4,0 -256.7,-115 -256.7,-256.7 0,-141.4 115.3,-256.7 256.7,-256.7 141.7,0 256.7,115.3 256.7,256.7 0,141.7 -115,256.7 -256.7,256.7 z m 0,-390.8 c -73.8,0 -134.1,60.3 -134.1,134.1 0,74.1 60.3,134.1 134.1,134.1 74.1,0 134.1,-60 134.1,-134.1 0,-73.8 -60,-134.1 -134.1,-134.1 z m 0,390.8 c -141.4,0 -256.7,-115 -256.7,-256.7 0,-141.4 115.3,-256.7 256.7,-256.7 141.7,0 256.7,115.3 256.7,256.7 0,141.7 -115,256.7 -256.7,256.7 z m 0,-390.8 c -73.8,0 -134.1,60.3 -134.1,134.1 0,74.1 60.3,134.1 134.1,134.1 74.1,0 134.1,-60 134.1,-134.1 0,-73.8 -60,-134.1 -134.1,-134.1 z m 0,390.8 c -141.4,0 -256.7,-115 -256.7,-256.7 0,-141.4 115.3,-256.7 256.7,-256.7 141.7,0 256.7,115.3 256.7,256.7 0,141.7 -115,256.7 -256.7,256.7 z m 0,-827.6 c -314.6,0 -570.9,256.3 -570.9,570.9 0,314.9 256.3,570.9 570.9,570.9 314.9,0 570.9,-256 570.9,-570.9 0,-314.6 -256,-570.9 -570.9,-570.9 z m 0,1264.4 c -382.2,0 -693.5,-311 -693.5,-693.5 0,-382.2 311.3,-693.5 693.5,-693.5 382.5,0 693.5,311.3 693.5,693.5 0,382.5 -311,693.5 -693.5,693.5 z m 0,-827.6 c -73.8,0 -134.1,60.3 -134.1,134.1 0,74.1 60.3,134.1 134.1,134.1 74.1,0 134.1,-60 134.1,-134.1 0,-73.8 -60,-134.1 -134.1,-134.1 z m 0,390.8 c -141.4,0 -256.7,-115 -256.7,-256.7 0,-141.4 115.3,-256.7 256.7,-256.7 141.7,0 256.7,115.3 256.7,256.7 0,141.7 -115,256.7 -256.7,256.7 z m 0,-390.8 c -73.8,0 -134.1,60.3 -134.1,134.1 0,74.1 60.3,134.1 134.1,134.1 74.1,0 134.1,-60 134.1,-134.1 0,-73.8 -60,-134.1 -134.1,-134.1 z m 0,390.8 c -141.4,0 -256.7,-115 -256.7,-256.7 0,-141.4 115.3,-256.7 256.7,-256.7 141.7,0 256.7,115.3 256.7,256.7 0,141.7 -115,256.7 -256.7,256.7 z m 0,-390.8 c -73.8,0 -134.1,60.3 -134.1,134.1 0,74.1 60.3,134.1 134.1,134.1 74.1,0 134.1,-60 134.1,-134.1 0,-73.8 -60,-134.1 -134.1,-134.1 z m 0,390.8 c -141.4,0 -256.7,-115 -256.7,-256.7 0,-141.4 115.3,-256.7 256.7,-256.7 141.7,0 256.7,115.3 256.7,256.7 0,141.7 -115,256.7 -256.7,256.7 z m 0,-390.8 c -73.8,0 -134.1,60.3 -134.1,134.1 0,74.1 60.3,134.1 134.1,134.1 74.1,0 134.1,-60 134.1,-134.1 0,-73.8 -60,-134.1 -134.1,-134.1 z m 0,390.8 c -141.4,0 -256.7,-115 -256.7,-256.7 0,-141.4 115.3,-256.7 256.7,-256.7 141.7,0 256.7,115.3 256.7,256.7 0,141.7 -115,256.7 -256.7,256.7 z m 0,-390.8 c -73.8,0 -134.1,60.3 -134.1,134.1 0,74.1 60.3,134.1 134.1,134.1 74.1,0 134.1,-60 134.1,-134.1 0,-73.8 -60,-134.1 -134.1,-134.1 z m 0,390.8 c -141.4,0 -256.7,-115 -256.7,-256.7 0,-141.4 115.3,-256.7 256.7,-256.7 141.7,0 256.7,115.3 256.7,256.7 0,141.7 -115,256.7 -256.7,256.7 z m 0,-390.8 c -73.8,0 -134.1,60.3 -134.1,134.1 0,74.1 60.3,134.1 134.1,134.1 74.1,0 134.1,-60 134.1,-134.1 0,-73.8 -60,-134.1 -134.1,-134.1 z m 0,390.8 c -141.4,0 -256.7,-115 -256.7,-256.7 0,-141.4 115.3,-256.7 256.7,-256.7 141.7,0 256.7,115.3 256.7,256.7 0,141.7 -115,256.7 -256.7,256.7 z m -622.8,-1352.7 c -393.3,223.8 -637.6,643.8 -637.6,1096 0,441.4 224.5,843 600.8,1074.4 28.9,17.7 37.9,55.4 20.2,84.2 -17.7,29 -55.4,37.9 -84.4,20.2 -412.9,-253.7 -659.2,-694.4 -659.2,-1178.8 0,-496.1 267.9,-956.8 699.7,-1202.7 9.4,-5.3 20,-8.1 30.1,-8.1 21.4,0 42.1,11.3 53.4,31.1 16.7,29.4 6.4,66.9 -23,83.7 z m -661.5,-13.3 c -266.4,307.7 -412.9,701.8 -412.9,1109.3 0,397 139.8,783.2 394,1087.3 21.6,26 18.2,64.6 -7.8,86.3 -26,21.8 -64.7,18.4 -86.3,-7.6 -272.6,-326.2 -422.5,-740.2 -422.5,-1166 0,-437 157.1,-859.3 442.8,-1189.4 11.9,-14 29.2,-21.4 46.2,-21.4 14.3,0 28.5,5.1 40.2,15 25.6,22.3 28.3,61 6.3,86.5 z m 0,0 c -266.4,307.7 -412.9,701.8 -412.9,1109.3 0,397 139.8,783.2 394,1087.3 21.6,26 18.2,64.6 -7.8,86.3 -26,21.8 -64.7,18.4 -86.3,-7.6 -272.6,-326.2 -422.5,-740.2 -422.5,-1166 0,-437 157.1,-859.3 442.8,-1189.4 11.9,-14 29.2,-21.4 46.2,-21.4 14.3,0 28.5,5.1 40.2,15 25.6,22.3 28.3,61 6.3,86.5 z m 661.5,13.3 c -393.3,223.8 -637.6,643.8 -637.6,1096 0,441.4 224.5,843 600.8,1074.4 28.9,17.7 37.9,55.4 20.2,84.2 -17.7,29 -55.4,37.9 -84.4,20.2 -412.9,-253.7 -659.2,-694.4 -659.2,-1178.8 0,-496.1 267.9,-956.8 699.7,-1202.7 9.4,-5.3 20,-8.1 30.1,-8.1 21.4,0 42.1,11.3 53.4,31.1 16.7,29.4 6.4,66.9 -23,83.7 z m 622.8,961.9 c -73.8,0 -134.1,60.3 -134.1,134.1 0,74.1 60.3,134.1 134.1,134.1 74.1,0 134.1,-60 134.1,-134.1 0,-73.8 -60,-134.1 -134.1,-134.1 z m 0,390.8 c -141.4,0 -256.7,-115 -256.7,-256.7 0,-141.4 115.3,-256.7 256.7,-256.7 141.7,0 256.7,115.3 256.7,256.7 0,141.7 -115,256.7 -256.7,256.7 z m 0,-390.8 c -73.8,0 -134.1,60.3 -134.1,134.1 0,74.1 60.3,134.1 134.1,134.1 74.1,0 134.1,-60 134.1,-134.1 0,-73.8 -60,-134.1 -134.1,-134.1 z m 0,390.8 c -141.4,0 -256.7,-115 -256.7,-256.7 0,-141.4 115.3,-256.7 256.7,-256.7 141.7,0 256.7,115.3 256.7,256.7 0,141.7 -115,256.7 -256.7,256.7 z m 0,-390.8 c -73.8,0 -134.1,60.3 -134.1,134.1 0,74.1 60.3,134.1 134.1,134.1 74.1,0 134.1,-60 134.1,-134.1 0,-73.8 -60,-134.1 -134.1,-134.1 z m 0,390.8 c -141.4,0 -256.7,-115 -256.7,-256.7 0,-141.4 115.3,-256.7 256.7,-256.7 141.7,0 256.7,115.3 256.7,256.7 0,141.7 -115,256.7 -256.7,256.7 z m 0,-390.8 c -73.8,0 -134.1,60.3 -134.1,134.1 0,74.1 60.3,134.1 134.1,134.1 74.1,0 134.1,-60 134.1,-134.1 0,-73.8 -60,-134.1 -134.1,-134.1 z m 0,390.8 c -141.4,0 -256.7,-115 -256.7,-256.7 0,-141.4 115.3,-256.7 256.7,-256.7 141.7,0 256.7,115.3 256.7,256.7 0,141.7 -115,256.7 -256.7,256.7 z m 0,-390.8 c -73.8,0 -134.1,60.3 -134.1,134.1 0,74.1 60.3,134.1 134.1,134.1 74.1,0 134.1,-60 134.1,-134.1 0,-73.8 -60,-134.1 -134.1,-134.1 z m 0,390.8 c -141.4,0 -256.7,-115 -256.7,-256.7 0,-141.4 115.3,-256.7 256.7,-256.7 141.7,0 256.7,115.3 256.7,256.7 0,141.7 -115,256.7 -256.7,256.7 z m 0,-390.8 c -73.8,0 -134.1,60.3 -134.1,134.1 0,74.1 60.3,134.1 134.1,134.1 74.1,0 134.1,-60 134.1,-134.1 0,-73.8 -60,-134.1 -134.1,-134.1 z m 0,390.8 c -141.4,0 -256.7,-115 -256.7,-256.7 0,-141.4 115.3,-256.7 256.7,-256.7 141.7,0 256.7,115.3 256.7,256.7 0,141.7 -115,256.7 -256.7,256.7 z m 0,-390.8 c -73.8,0 -134.1,60.3 -134.1,134.1 0,74.1 60.3,134.1 134.1,134.1 74.1,0 134.1,-60 134.1,-134.1 0,-73.8 -60,-134.1 -134.1,-134.1 z m 0,390.8 c -141.4,0 -256.7,-115 -256.7,-256.7 0,-141.4 115.3,-256.7 256.7,-256.7 141.7,0 256.7,115.3 256.7,256.7 0,141.7 -115,256.7 -256.7,256.7 z m 0,-827.6 c -314.6,0 -570.9,256.3 -570.9,570.9 0,314.9 256.3,570.9 570.9,570.9 314.9,0 570.9,-256 570.9,-570.9 0,-314.6 -256,-570.9 -570.9,-570.9 z m 0,1264.4 c -382.2,0 -693.5,-311 -693.5,-693.5 0,-382.2 311.3,-693.5 693.5,-693.5 382.5,0 693.5,311.3 693.5,693.5 0,382.5 -311,693.5 -693.5,693.5 z m 0,-827.6 c -73.8,0 -134.1,60.3 -134.1,134.1 0,74.1 60.3,134.1 134.1,134.1 74.1,0 134.1,-60 134.1,-134.1 0,-73.8 -60,-134.1 -134.1,-134.1 z m 0,390.8 c -141.4,0 -256.7,-115 -256.7,-256.7 0,-141.4 115.3,-256.7 256.7,-256.7 141.7,0 256.7,115.3 256.7,256.7 0,141.7 -115,256.7 -256.7,256.7 z m 0,-390.8 c -73.8,0 -134.1,60.3 -134.1,134.1 0,74.1 60.3,134.1 134.1,134.1 74.1,0 134.1,-60 134.1,-134.1 0,-73.8 -60,-134.1 -134.1,-134.1 z m 0,390.8 c -141.4,0 -256.7,-115 -256.7,-256.7 0,-141.4 115.3,-256.7 256.7,-256.7 141.7,0 256.7,115.3 256.7,256.7 0,141.7 -115,256.7 -256.7,256.7 z m 0,-390.8 c -73.8,0 -134.1,60.3 -134.1,134.1 0,74.1 60.3,134.1 134.1,134.1 74.1,0 134.1,-60 134.1,-134.1 0,-73.8 -60,-134.1 -134.1,-134.1 z m 0,390.8 c -141.4,0 -256.7,-115 -256.7,-256.7 0,-141.4 115.3,-256.7 256.7,-256.7 141.7,0 256.7,115.3 256.7,256.7 0,141.7 -115,256.7 -256.7,256.7 z m 0,-390.8 c -73.8,0 -134.1,60.3 -134.1,134.1 0,74.1 60.3,134.1 134.1,134.1 74.1,0 134.1,-60 134.1,-134.1 0,-73.8 -60,-134.1 -134.1,-134.1 z m 0,390.8 c -141.4,0 -256.7,-115 -256.7,-256.7 0,-141.4 115.3,-256.7 256.7,-256.7 141.7,0 256.7,115.3 256.7,256.7 0,141.7 -115,256.7 -256.7,256.7 z m 0,-390.8 c -73.8,0 -134.1,60.3 -134.1,134.1 0,74.1 60.3,134.1 134.1,134.1 74.1,0 134.1,-60 134.1,-134.1 0,-73.8 -60,-134.1 -134.1,-134.1 z m 0,390.8 c -141.4,0 -256.7,-115 -256.7,-256.7 0,-141.4 115.3,-256.7 256.7,-256.7 141.7,0 256.7,115.3 256.7,256.7 0,141.7 -115,256.7 -256.7,256.7 z m 0,-390.8 c -73.8,0 -134.1,60.3 -134.1,134.1 0,74.1 60.3,134.1 134.1,134.1 74.1,0 134.1,-60 134.1,-134.1 0,-73.8 -60,-134.1 -134.1,-134.1 z m 0,390.8 c -141.4,0 -256.7,-115 -256.7,-256.7 0,-141.4 115.3,-256.7 256.7,-256.7 141.7,0 256.7,115.3 256.7,256.7 0,141.7 -115,256.7 -256.7,256.7 z m 0,-390.8 c -73.8,0 -134.1,60.3 -134.1,134.1 0,74.1 60.3,134.1 134.1,134.1 74.1,0 134.1,-60 134.1,-134.1 0,-73.8 -60,-134.1 -134.1,-134.1 z m 0,390.8 c -141.4,0 -256.7,-115 -256.7,-256.7 0,-141.4 115.3,-256.7 256.7,-256.7 141.7,0 256.7,115.3 256.7,256.7 0,141.7 -115,256.7 -256.7,256.7 z m 0,-390.8 c -73.8,0 -134.1,60.3 -134.1,134.1 0,74.1 60.3,134.1 134.1,134.1 74.1,0 134.1,-60 134.1,-134.1 0,-73.8 -60,-134.1 -134.1,-134.1 z m 0,390.8 c -141.4,0 -256.7,-115 -256.7,-256.7 0,-141.4 115.3,-256.7 256.7,-256.7 141.7,0 256.7,115.3 256.7,256.7 0,141.7 -115,256.7 -256.7,256.7 z m 0,-390.8 c -73.8,0 -134.1,60.3 -134.1,134.1 0,74.1 60.3,134.1 134.1,134.1 74.1,0 134.1,-60 134.1,-134.1 0,-73.8 -60,-134.1 -134.1,-134.1 z m 0,390.8 c -141.4,0 -256.7,-115 -256.7,-256.7 0,-141.4 115.3,-256.7 256.7,-256.7 141.7,0 256.7,115.3 256.7,256.7 0,141.7 -115,256.7 -256.7,256.7 z m 0,-390.8 c -73.8,0 -134.1,60.3 -134.1,134.1 0,74.1 60.3,134.1 134.1,134.1 74.1,0 134.1,-60 134.1,-134.1 0,-73.8 -60,-134.1 -134.1,-134.1 z m 0,390.8 c -141.4,0 -256.7,-115 -256.7,-256.7 0,-141.4 115.3,-256.7 256.7,-256.7 141.7,0 256.7,115.3 256.7,256.7 0,141.7 -115,256.7 -256.7,256.7 z m 0,-390.8 c -73.8,0 -134.1,60.3 -134.1,134.1 0,74.1 60.3,134.1 134.1,134.1 74.1,0 134.1,-60 134.1,-134.1 0,-73.8 -60,-134.1 -134.1,-134.1 z m 0,390.8 c -141.4,0 -256.7,-115 -256.7,-256.7 0,-141.4 115.3,-256.7 256.7,-256.7 141.7,0 256.7,115.3 256.7,256.7 0,141.7 -115,256.7 -256.7,256.7 z m 0,-827.6 c -314.6,0 -570.9,256.3 -570.9,570.9 0,314.9 256.3,570.9 570.9,570.9 314.9,0 570.9,-256 570.9,-570.9 0,-314.6 -256,-570.9 -570.9,-570.9 z m 0,1264.4 c -382.2,0 -693.5,-311 -693.5,-693.5 0,-382.2 311.3,-693.5 693.5,-693.5 382.5,0 693.5,311.3 693.5,693.5 0,382.5 -311,693.5 -693.5,693.5 z m 0,-827.6 c -73.8,0 -134.1,60.3 -134.1,134.1 0,74.1 60.3,134.1 134.1,134.1 74.1,0 134.1,-60 134.1,-134.1 0,-73.8 -60,-134.1 -134.1,-134.1 z m 0,390.8 c -141.4,0 -256.7,-115 -256.7,-256.7 0,-141.4 115.3,-256.7 256.7,-256.7 141.7,0 256.7,115.3 256.7,256.7 0,141.7 -115,256.7 -256.7,256.7 z m 0,-390.8 c -73.8,0 -134.1,60.3 -134.1,134.1 0,74.1 60.3,134.1 134.1,134.1 74.1,0 134.1,-60 134.1,-134.1 0,-73.8 -60,-134.1 -134.1,-134.1 z m 0,390.8 c -141.4,0 -256.7,-115 -256.7,-256.7 0,-141.4 115.3,-256.7 256.7,-256.7 141.7,0 256.7,115.3 256.7,256.7 0,141.7 -115,256.7 -256.7,256.7 z m 0,-390.8 c -73.8,0 -134.1,60.3 -134.1,134.1 0,74.1 60.3,134.1 134.1,134.1 74.1,0 134.1,-60 134.1,-134.1 0,-73.8 -60,-134.1 -134.1,-134.1 z m 0,390.8 c -141.4,0 -256.7,-115 -256.7,-256.7 0,-141.4 115.3,-256.7 256.7,-256.7 141.7,0 256.7,115.3 256.7,256.7 0,141.7 -115,256.7 -256.7,256.7 z m 0,-390.8 c -73.8,0 -134.1,60.3 -134.1,134.1 0,74.1 60.3,134.1 134.1,134.1 74.1,0 134.1,-60 134.1,-134.1 0,-73.8 -60,-134.1 -134.1,-134.1 z m 0,390.8 c -141.4,0 -256.7,-115 -256.7,-256.7 0,-141.4 115.3,-256.7 256.7,-256.7 141.7,0 256.7,115.3 256.7,256.7 0,141.7 -115,256.7 -256.7,256.7 z m 0,-390.8 c -73.8,0 -134.1,60.3 -134.1,134.1 0,74.1 60.3,134.1 134.1,134.1 74.1,0 134.1,-60 134.1,-134.1 0,-73.8 -60,-134.1 -134.1,-134.1 z m 0,390.8 c -141.4,0 -256.7,-115 -256.7,-256.7 0,-141.4 115.3,-256.7 256.7,-256.7 141.7,0 256.7,115.3 256.7,256.7 0,141.7 -115,256.7 -256.7,256.7 z m 0,-390.8 c -73.8,0 -134.1,60.3 -134.1,134.1 0,74.1 60.3,134.1 134.1,134.1 74.1,0 134.1,-60 134.1,-134.1 0,-73.8 -60,-134.1 -134.1,-134.1 z m 0,390.8 c -141.4,0 -256.7,-115 -256.7,-256.7 0,-141.4 115.3,-256.7 256.7,-256.7 141.7,0 256.7,115.3 256.7,256.7 0,141.7 -115,256.7 -256.7,256.7 z m -622.8,-1352.7 c -393.3,223.8 -637.6,643.8 -637.6,1096 0,441.4 224.5,843 600.8,1074.4 28.9,17.7 37.9,55.4 20.2,84.2 -17.7,29 -55.4,37.9 -84.4,20.2 -412.9,-253.7 -659.2,-694.4 -659.2,-1178.8 0,-496.1 267.9,-956.8 699.7,-1202.7 9.4,-5.3 20,-8.1 30.1,-8.1 21.4,0 42.1,11.3 53.4,31.1 16.7,29.4 6.4,66.9 -23,83.7 z m -661.5,-13.3 c -266.4,307.7 -412.9,701.8 -412.9,1109.3 0,397 139.8,783.2 394,1087.3 21.6,26 18.2,64.6 -7.8,86.3 -26,21.8 -64.7,18.4 -86.3,-7.6 -272.6,-326.2 -422.5,-740.2 -422.5,-1166 0,-437 157.1,-859.3 442.8,-1189.4 11.9,-14 29.2,-21.4 46.2,-21.4 14.3,0 28.5,5.1 40.2,15 25.6,22.3 28.3,61 6.3,86.5 z m 0,0 c -266.4,307.7 -412.9,701.8 -412.9,1109.3 0,397 139.8,783.2 394,1087.3 21.6,26 18.2,64.6 -7.8,86.3 -26,21.8 -64.7,18.4 -86.3,-7.6 -272.6,-326.2 -422.5,-740.2 -422.5,-1166 0,-437 157.1,-859.3 442.8,-1189.4 11.9,-14 29.2,-21.4 46.2,-21.4 14.3,0 28.5,5.1 40.2,15 25.6,22.3 28.3,61 6.3,86.5 z m 661.5,13.3 c -393.3,223.8 -637.6,643.8 -637.6,1096 0,441.4 224.5,843 600.8,1074.4 28.9,17.7 37.9,55.4 20.2,84.2 -17.7,29 -55.4,37.9 -84.4,20.2 -412.9,-253.7 -659.2,-694.4 -659.2,-1178.8 0,-496.1 267.9,-956.8 699.7,-1202.7 9.4,-5.3 20,-8.1 30.1,-8.1 21.4,0 42.1,11.3 53.4,31.1 16.7,29.4 6.4,66.9 -23,83.7 z m 622.8,961.9 c -73.8,0 -134.1,60.3 -134.1,134.1 0,74.1 60.3,134.1 134.1,134.1 74.1,0 134.1,-60 134.1,-134.1 0,-73.8 -60,-134.1 -134.1,-134.1 z m 0,390.8 c -141.4,0 -256.7,-115 -256.7,-256.7 0,-141.4 115.3,-256.7 256.7,-256.7 141.7,0 256.7,115.3 256.7,256.7 0,141.7 -115,256.7 -256.7,256.7 z m 0,-390.8 c -73.8,0 -134.1,60.3 -134.1,134.1 0,74.1 60.3,134.1 134.1,134.1 74.1,0 134.1,-60 134.1,-134.1 0,-73.8 -60,-134.1 -134.1,-134.1 z m 0,390.8 c -141.4,0 -256.7,-115 -256.7,-256.7 0,-141.4 115.3,-256.7 256.7,-256.7 141.7,0 256.7,115.3 256.7,256.7 0,141.7 -115,256.7 -256.7,256.7 z m 0,-390.8 c -73.8,0 -134.1,60.3 -134.1,134.1 0,74.1 60.3,134.1 134.1,134.1 74.1,0 134.1,-60 134.1,-134.1 0,-73.8 -60,-134.1 -134.1,-134.1 z m 0,390.8 c -141.4,0 -256.7,-115 -256.7,-256.7 0,-141.4 115.3,-256.7 256.7,-256.7 141.7,0 256.7,115.3 256.7,256.7 0,141.7 -115,256.7 -256.7,256.7 z m 0,-390.8 c -73.8,0 -134.1,60.3 -134.1,134.1 0,74.1 60.3,134.1 134.1,134.1 74.1,0 134.1,-60 134.1,-134.1 0,-73.8 -60,-134.1 -134.1,-134.1 z m 0,390.8 c -141.4,0 -256.7,-115 -256.7,-256.7 0,-141.4 115.3,-256.7 256.7,-256.7 141.7,0 256.7,115.3 256.7,256.7 0,141.7 -115,256.7 -256.7,256.7 z m 0,-390.8 c -73.8,0 -134.1,60.3 -134.1,134.1 0,74.1 60.3,134.1 134.1,134.1 74.1,0 134.1,-60 134.1,-134.1 0,-73.8 -60,-134.1 -134.1,-134.1 z m 0,390.8 c -141.4,0 -256.7,-115 -256.7,-256.7 0,-141.4 115.3,-256.7 256.7,-256.7 141.7,0 256.7,115.3 256.7,256.7 0,141.7 -115,256.7 -256.7,256.7 z m 0,-827.6 c -314.6,0 -570.9,256.3 -570.9,570.9 0,314.9 256.3,570.9 570.9,570.9 314.9,0 570.9,-256 570.9,-570.9 0,-314.6 -256,-570.9 -570.9,-570.9 z m 0,1264.4 c -382.2,0 -693.5,-311 -693.5,-693.5 0,-382.2 311.3,-693.5 693.5,-693.5 382.5,0 693.5,311.3 693.5,693.5 0,382.5 -311,693.5 -693.5,693.5 z m 0,-827.6 c -73.8,0 -134.1,60.3 -134.1,134.1 0,74.1 60.3,134.1 134.1,134.1 74.1,0 134.1,-60 134.1,-134.1 0,-73.8 -60,-134.1 -134.1,-134.1 z m 0,390.8 c -141.4,0 -256.7,-115 -256.7,-256.7 0,-141.4 115.3,-256.7 256.7,-256.7 141.7,0 256.7,115.3 256.7,256.7 0,141.7 -115,256.7 -256.7,256.7 z m 0,-390.8 c -73.8,0 -134.1,60.3 -134.1,134.1 0,74.1 60.3,134.1 134.1,134.1 74.1,0 134.1,-60 134.1,-134.1 0,-73.8 -60,-134.1 -134.1,-134.1 z m 0,390.8 c -141.4,0 -256.7,-115 -256.7,-256.7 0,-141.4 115.3,-256.7 256.7,-256.7 141.7,0 256.7,115.3 256.7,256.7 0,141.7 -115,256.7 -256.7,256.7 z m 0,-390.8 c -73.8,0 -134.1,60.3 -134.1,134.1 0,74.1 60.3,134.1 134.1,134.1 74.1,0 134.1,-60 134.1,-134.1 0,-73.8 -60,-134.1 -134.1,-134.1 z m 0,390.8 c -141.4,0 -256.7,-115 -256.7,-256.7 0,-141.4 115.3,-256.7 256.7,-256.7 141.7,0 256.7,115.3 256.7,256.7 0,141.7 -115,256.7 -256.7,256.7 z m 0,-390.8 c -73.8,0 -134.1,60.3 -134.1,134.1 0,74.1 60.3,134.1 134.1,134.1 74.1,0 134.1,-60 134.1,-134.1 0,-73.8 -60,-134.1 -134.1,-134.1 z m 0,390.8 c -141.4,0 -256.7,-115 -256.7,-256.7 0,-141.4 115.3,-256.7 256.7,-256.7 141.7,0 256.7,115.3 256.7,256.7 0,141.7 -115,256.7 -256.7,256.7 z m 0,-390.8 c -73.8,0 -134.1,60.3 -134.1,134.1 0,74.1 60.3,134.1 134.1,134.1 74.1,0 134.1,-60 134.1,-134.1 0,-73.8 -60,-134.1 -134.1,-134.1 z m 0,390.8 c -141.4,0 -256.7,-115 -256.7,-256.7 0,-141.4 115.3,-256.7 256.7,-256.7 141.7,0 256.7,115.3 256.7,256.7 0,141.7 -115,256.7 -256.7,256.7 z m 0,-390.8 c -73.8,0 -134.1,60.3 -134.1,134.1 0,74.1 60.3,134.1 134.1,134.1 74.1,0 134.1,-60 134.1,-134.1 0,-73.8 -60,-134.1 -134.1,-134.1 z m 0,390.8 c -141.4,0 -256.7,-115 -256.7,-256.7 0,-141.4 115.3,-256.7 256.7,-256.7 141.7,0 256.7,115.3 256.7,256.7 0,141.7 -115,256.7 -256.7,256.7 z m 0,-390.8 c -73.8,0 -134.1,60.3 -134.1,134.1 0,74.1 60.3,134.1 134.1,134.1 74.1,0 134.1,-60 134.1,-134.1 0,-73.8 -60,-134.1 -134.1,-134.1 z m 0,390.8 c -141.4,0 -256.7,-115 -256.7,-256.7 0,-141.4 115.3,-256.7 256.7,-256.7 141.7,0 256.7,115.3 256.7,256.7 0,141.7 -115,256.7 -256.7,256.7 z m 0,-827.6 c -314.6,0 -570.9,256.3 -570.9,570.9 0,314.9 256.3,570.9 570.9,570.9 314.9,0 570.9,-256 570.9,-570.9 0,-314.6 -256,-570.9 -570.9,-570.9 z m 0,1264.4 c -382.2,0 -693.5,-311 -693.5,-693.5 0,-382.2 311.3,-693.5 693.5,-693.5 382.5,0 693.5,311.3 693.5,693.5 0,382.5 -311,693.5 -693.5,693.5 z m 0,-827.6 c -73.8,0 -134.1,60.3 -134.1,134.1 0,74.1 60.3,134.1 134.1,134.1 74.1,0 134.1,-60 134.1,-134.1 0,-73.8 -60,-134.1 -134.1,-134.1 z m 0,390.8 c -141.4,0 -256.7,-115 -256.7,-256.7 0,-141.4 115.3,-256.7 256.7,-256.7 141.7,0 256.7,115.3 256.7,256.7 0,141.7 -115,256.7 -256.7,256.7 z m 0,-390.8 c -73.8,0 -134.1,60.3 -134.1,134.1 0,74.1 60.3,134.1 134.1,134.1 74.1,0 134.1,-60 134.1,-134.1 0,-73.8 -60,-134.1 -134.1,-134.1 z m 0,390.8 c -141.4,0 -256.7,-115 -256.7,-256.7 0,-141.4 115.3,-256.7 256.7,-256.7 141.7,0 256.7,115.3 256.7,256.7 0,141.7 -115,256.7 -256.7,256.7 z m 0,-390.8 c -73.8,0 -134.1,60.3 -134.1,134.1 0,74.1 60.3,134.1 134.1,134.1 74.1,0 134.1,-60 134.1,-134.1 0,-73.8 -60,-134.1 -134.1,-134.1 z m 0,390.8 c -141.4,0 -256.7,-115 -256.7,-256.7 0,-141.4 115.3,-256.7 256.7,-256.7 141.7,0 256.7,115.3 256.7,256.7 0,141.7 -115,256.7 -256.7,256.7 z m 0,-390.8 c -73.8,0 -134.1,60.3 -134.1,134.1 0,74.1 60.3,134.1 134.1,134.1 74.1,0 134.1,-60 134.1,-134.1 0,-73.8 -60,-134.1 -134.1,-134.1 z m 0,390.8 c -141.4,0 -256.7,-115 -256.7,-256.7 0,-141.4 115.3,-256.7 256.7,-256.7 141.7,0 256.7,115.3 256.7,256.7 0,141.7 -115,256.7 -256.7,256.7 z m -622.8,-1352.7 c -393.3,223.8 -637.6,643.8 -637.6,1096 0,441.4 224.5,843 600.8,1074.4 28.9,17.7 37.9,55.4 20.2,84.2 -17.7,29 -55.4,37.9 -84.4,20.2 -412.9,-253.7 -659.2,-694.4 -659.2,-1178.8 0,-496.1 267.9,-956.8 699.7,-1202.7 9.4,-5.3 20,-8.1 30.1,-8.1 21.4,0 42.1,11.3 53.4,31.1 16.7,29.4 6.4,66.9 -23,83.7 z m -661.5,-13.3 c -266.4,307.7 -412.9,701.8 -412.9,1109.3 0,397 139.8,783.2 394,1087.3 21.6,26 18.2,64.6 -7.8,86.3 -26,21.8 -64.7,18.4 -86.3,-7.6 -272.6,-326.2 -422.5,-740.2 -422.5,-1166 0,-437 157.1,-859.3 442.8,-1189.4 11.9,-14 29.2,-21.4 46.2,-21.4 14.3,0 28.5,5.1 40.2,15 25.6,22.3 28.3,61 6.3,86.5 z m 0,0 c -266.4,307.7 -412.9,701.8 -412.9,1109.3 0,397 139.8,783.2 394,1087.3 21.6,26 18.2,64.6 -7.8,86.3 -26,21.8 -64.7,18.4 -86.3,-7.6 -272.6,-326.2 -422.5,-740.2 -422.5,-1166 0,-437 157.1,-859.3 442.8,-1189.4 11.9,-14 29.2,-21.4 46.2,-21.4 14.3,0 28.5,5.1 40.2,15 25.6,22.3 28.3,61 6.3,86.5 z m 661.5,13.3 c -393.3,223.8 -637.6,643.8 -637.6,1096 0,441.4 224.5,843 600.8,1074.4 28.9,17.7 37.9,55.4 20.2,84.2 -17.7,29 -55.4,37.9 -84.4,20.2 -412.9,-253.7 -659.2,-694.4 -659.2,-1178.8 0,-496.1 267.9,-956.8 699.7,-1202.7 9.4,-5.3 20,-8.1 30.1,-8.1 21.4,0 42.1,11.3 53.4,31.1 16.7,29.4 6.4,66.9 -23,83.7 z m 622.8,961.9 c -73.8,0 -134.1,60.3 -134.1,134.1 0,74.1 60.3,134.1 134.1,134.1 74.1,0 134.1,-60 134.1,-134.1 0,-73.8 -60,-134.1 -134.1,-134.1 z m 0,390.8 c -141.4,0 -256.7,-115 -256.7,-256.7 0,-141.4 115.3,-256.7 256.7,-256.7 141.7,0 256.7,115.3 256.7,256.7 0,141.7 -115,256.7 -256.7,256.7 z m 0,-390.8 c -73.8,0 -134.1,60.3 -134.1,134.1 0,74.1 60.3,134.1 134.1,134.1 74.1,0 134.1,-60 134.1,-134.1 0,-73.8 -60,-134.1 -134.1,-134.1 z m 0,390.8 c -141.4,0 -256.7,-115 -256.7,-256.7 0,-141.4 115.3,-256.7 256.7,-256.7 141.7,0 256.7,115.3 256.7,256.7 0,141.7 -115,256.7 -256.7,256.7 z m 0,-390.8 c -73.8,0 -134.1,60.3 -134.1,134.1 0,74.1 60.3,134.1 134.1,134.1 74.1,0 134.1,-60 134.1,-134.1 0,-73.8 -60,-134.1 -134.1,-134.1 z m 0,390.8 c -141.4,0 -256.7,-115 -256.7,-256.7 0,-141.4 115.3,-256.7 256.7,-256.7 141.7,0 256.7,115.3 256.7,256.7 0,141.7 -115,256.7 -256.7,256.7 z m 0,-827.6 c -314.6,0 -570.9,256.3 -570.9,570.9 0,314.9 256.3,570.9 570.9,570.9 314.9,0 570.9,-256 570.9,-570.9 0,-314.6 -256,-570.9 -570.9,-570.9 z m 0,1264.4 c -382.2,0 -693.5,-311 -693.5,-693.5 0,-382.2 311.3,-693.5 693.5,-693.5 382.5,0 693.5,311.3 693.5,693.5 0,382.5 -311,693.5 -693.5,693.5 z m 0,-827.6 c -73.8,0 -134.1,60.3 -134.1,134.1 0,74.1 60.3,134.1 134.1,134.1 74.1,0 134.1,-60 134.1,-134.1 0,-73.8 -60,-134.1 -134.1,-134.1 z m 0,390.8 c -141.4,0 -256.7,-115 -256.7,-256.7 0,-141.4 115.3,-256.7 256.7,-256.7 141.7,0 256.7,115.3 256.7,256.7 0,141.7 -115,256.7 -256.7,256.7 z m 0,-390.8 c -73.8,0 -134.1,60.3 -134.1,134.1 0,74.1 60.3,134.1 134.1,134.1 74.1,0 134.1,-60 134.1,-134.1 0,-73.8 -60,-134.1 -134.1,-134.1 z m 0,390.8 c -141.4,0 -256.7,-115 -256.7,-256.7 0,-141.4 115.3,-256.7 256.7,-256.7 141.7,0 256.7,115.3 256.7,256.7 0,141.7 -115,256.7 -256.7,256.7 z m 0,-390.8 c -73.8,0 -134.1,60.3 -134.1,134.1 0,74.1 60.3,134.1 134.1,134.1 74.1,0 134.1,-60 134.1,-134.1 0,-73.8 -60,-134.1 -134.1,-134.1 z m 0,390.8 c -141.4,0 -256.7,-115 -256.7,-256.7 0,-141.4 115.3,-256.7 256.7,-256.7 141.7,0 256.7,115.3 256.7,256.7 0,141.7 -115,256.7 -256.7,256.7 z m 0,-827.6 c -314.6,0 -570.9,256.3 -570.9,570.9 0,314.9 256.3,570.9 570.9,570.9 314.9,0 570.9,-256 570.9,-570.9 0,-314.6 -256,-570.9 -570.9,-570.9 z m 0,1264.4 c -382.2,0 -693.5,-311 -693.5,-693.5 0,-382.2 311.3,-693.5 693.5,-693.5 382.5,0 693.5,311.3 693.5,693.5 0,382.5 -311,693.5 -693.5,693.5 z m 0,-827.6 c -73.8,0 -134.1,60.3 -134.1,134.1 0,74.1 60.3,134.1 134.1,134.1 74.1,0 134.1,-60 134.1,-134.1 0,-73.8 -60,-134.1 -134.1,-134.1 z m 0,390.8 c -141.4,0 -256.7,-115 -256.7,-256.7 0,-141.4 115.3,-256.7 256.7,-256.7 141.7,0 256.7,115.3 256.7,256.7 0,141.7 -115,256.7 -256.7,256.7 z m 0,-390.8 c -73.8,0 -134.1,60.3 -134.1,134.1 0,74.1 60.3,134.1 134.1,134.1 74.1,0 134.1,-60 134.1,-134.1 0,-73.8 -60,-134.1 -134.1,-134.1 z m 0,390.8 c -141.4,0 -256.7,-115 -256.7,-256.7 0,-141.4 115.3,-256.7 256.7,-256.7 141.7,0 256.7,115.3 256.7,256.7 0,141.7 -115,256.7 -256.7,256.7 z m -622.8,-1352.7 c -393.3,223.8 -637.6,643.8 -637.6,1096 0,441.4 224.5,843 600.8,1074.4 28.9,17.7 37.9,55.4 20.2,84.2 -17.7,29 -55.4,37.9 -84.4,20.2 -412.9,-253.7 -659.2,-694.4 -659.2,-1178.8 0,-496.1 267.9,-956.8 699.7,-1202.7 9.4,-5.3 20,-8.1 30.1,-8.1 21.4,0 42.1,11.3 53.4,31.1 16.7,29.4 6.4,66.9 -23,83.7 z m -661.5,-13.3 c -266.4,307.7 -412.9,701.8 -412.9,1109.3 0,397 139.8,783.2 394,1087.3 21.6,26 18.2,64.6 -7.8,86.3 -26,21.8 -64.7,18.4 -86.3,-7.6 -272.6,-326.2 -422.5,-740.2 -422.5,-1166 0,-437 157.1,-859.3 442.8,-1189.4 11.9,-14 29.2,-21.4 46.2,-21.4 14.3,0 28.5,5.1 40.2,15 25.6,22.3 28.3,61 6.3,86.5 z m -412.9,1109.3 c 0,397 139.8,783.2 394,1087.3 21.6,26 18.2,64.6 -7.8,86.3 -26,21.8 -64.7,18.4 -86.3,-7.6 -272.6,-326.2 -422.5,-740.2 -422.5,-1166 0,-437 157.1,-859.3 442.8,-1189.4 11.9,-14 29.2,-21.4 46.2,-21.4 14.3,0 28.5,5.1 40.2,15 25.6,22.3 28.3,61 6.3,86.5 -266.4,307.7 -412.9,701.8 -412.9,1109.3 z m 1074.4,-1096 c -393.3,223.8 -637.6,643.8 -637.6,1096 0,441.4 224.5,843 600.8,1074.4 28.9,17.7 37.9,55.4 20.2,84.2 -17.7,29 -55.4,37.9 -84.4,20.2 -412.9,-253.7 -659.2,-694.4 -659.2,-1178.8 0,-496.1 267.9,-956.8 699.7,-1202.7 9.4,-5.3 20,-8.1 30.1,-8.1 21.4,0 42.1,11.3 53.4,31.1 16.7,29.4 6.4,66.9 -23,83.7 z m 622.8,961.9 c -73.8,0 -134.1,60.3 -134.1,134.1 0,74.1 60.3,134.1 134.1,134.1 74.1,0 134.1,-60 134.1,-134.1 0,-73.8 -60,-134.1 -134.1,-134.1 z m 0,390.8 c -141.4,0 -256.7,-115 -256.7,-256.7 0,-141.4 115.3,-256.7 256.7,-256.7 141.7,0 256.7,115.3 256.7,256.7 0,141.7 -115,256.7 -256.7,256.7 z m 0,-827.6 c -314.6,0 -570.9,256.3 -570.9,570.9 0,314.9 256.3,570.9 570.9,570.9 314.9,0 570.9,-256 570.9,-570.9 0,-314.6 -256,-570.9 -570.9,-570.9 z m 0,1264.4 c -382.2,0 -693.5,-311 -693.5,-693.5 0,-382.2 311.3,-693.5 693.5,-693.5 382.5,0 693.5,311.3 693.5,693.5 0,382.5 -311,693.5 -693.5,693.5 z m 3743.2,-1902.4 c -92.4,-294 -392.8,-906.9 -436.8,-996.2 l -474.2,-348.7 c -20.3,-14.9 -32.2,-38.9 -31.8,-64.2 l 4.9,-263.1 h -1528.5 v 211.2 c 0,17.7 -6.2,35.2 -17.2,48.7 -21.6,26.7 -210.3,266.8 -210.3,505.8 0,140.1 14.5,543.1 28.6,932.7 14.2,394.2 27.6,766.9 27.6,899.3 0,82.9 23.7,139.7 70.6,168.9 38.2,23.7 88.8,29.6 141,24.4 0.5,0 0.9,-0.3 1.4,-0.3 h 0.9 c 38.9,-4.1 78.4,-14.5 113.8,-28 v -886.7 c 0,-33.8 27.4,-61.2 61.2,-61.2 34.1,0 61.4,27.4 61.4,61.2 v 921.2 c 0.2,3 0.2,6.2 0,9.2 v 228.4 c 0,97 78.9,175.9 175.8,175.9 97,0 175.9,-78.9 175.9,-175.9 V 9474.2 c 0,-33.8 27.4,-61.2 61.2,-61.2 34.1,0 61.4,27.4 61.4,61.2 V 10633 c 0,3 -0.4,5.7 -0.4,8.7 0,1.4 0.4,2.8 0.4,4.4 v 98.7 c 0,96.8 78.9,175.7 175.7,175.7 97.1,0 176,-78.9 176,-175.7 V 9641.6 c 0,-33.8 27.4,-61.2 61.2,-61.2 34,0 61.4,27.4 61.4,61.2 v 907.9 c 0,96.8 78.9,175.7 175.7,175.7 97.1,0 176,-78.9 176,-175.7 V 9213.1 c 0,-9 1.6,-17.7 4.6,-26.2 l 65.5,-184 c 10.4,-29.2 37.1,-49.5 68.1,-51.5 31.1,-2.6 60.1,14 74.3,41.4 108.4,207.7 274.6,448.3 416.6,503 121.9,30.4 217.3,24.4 255.7,-16.1 42.1,-44.9 24.7,-138.5 2.3,-209.3 z M 25505.8,7276.2 v 199.4 h 1530.8 l 3.6,-199.4 z m -308.2,2396.9 c -97.3,-116.8 -213.2,-214.6 -345.7,-289.8 -29.4,-16.8 -39.8,-54.3 -23,-83.7 11.3,-19.8 32,-31.1 53.4,-31.1 10.3,0 20.7,2.8 30.1,8.1 102.1,58.2 195,128.3 278.6,209.3 -2.1,-61.2 -4.4,-123.3 -6.7,-184.9 -10.8,-304.3 -22.1,-616.4 -26.5,-807.1 -291.4,-136.7 -603.5,-206.1 -928.8,-206.1 -1208.4,0 -2191.5,983 -2191.5,2191.5 0,1208.5 983.1,2191.8 2191.5,2191.8 1008.4,0 1871.6,-671.4 2121.4,-1640.4 -87.4,-25.8 -158.2,-90.9 -192,-174.6 -45.3,40 -102.6,66.9 -165.9,73.6 -66.4,261.1 -192.3,507.6 -365.9,715.6 -21.9,25.7 -60.5,29.4 -86.5,7.6 -26,-21.7 -29.4,-60.3 -7.8,-86.3 158.2,-189.3 273.7,-412.7 336.7,-649.6 -119.8,-38.8 -206.8,-151.3 -206.8,-284 v -142.6 c -16.3,4.8 -33.1,8.9 -50.3,12.6 -7.8,475 -252.8,905.6 -659,1155.1 -28.8,17.7 -66.5,8.8 -84.4,-20.2 -17.7,-28.8 -8.5,-66.5 20.2,-84.2 366.7,-225.4 589.3,-612.7 600.4,-1040.8 -52.5,-3 -103.8,-16.1 -148.6,-43.9 -58.7,-36.6 -128.6,-113.6 -128.6,-273.1 0,-86.7 -6.2,-287.5 -14.3,-522.8 z M 28059,9563.9 c -72.5,76.8 -202.9,94.1 -377,50.1 -3,-0.7 -5.8,-1.6 -9,-2.7 -177.6,-67 -342.3,-311 -435.6,-473.6 l -29.7,83 v 1328.8 c 0,164.4 -133.9,298.3 -298.6,298.3 -67.1,0 -129.2,-22.5 -179.2,-60.5 -18.8,131.4 -123.5,235.3 -255.3,252.8 -120.7,485.1 -400.9,924.2 -792.4,1240.5 -409.6,330.7 -925.8,513.1 -1453.2,513.1 -1276.1,0 -2314.1,-1038.3 -2314.1,-2314.4 0,-1276.1 1038,-2314.1 2314.1,-2314.1 323.4,0 634.6,65.1 927,193.2 2.3,-254.9 172.3,-494.1 227.2,-564.7 v -562.1 c 0,-43 35,-78 78,-78 h 1624.6 c 20.7,0 40.9,8.5 55.4,23.5 14.7,14.7 22.8,35.1 22.6,56.1 l -11.3,607.2 464.4,341.6 c 10.1,7.3 18.1,17 23.7,28 35.4,71.8 349.8,709.4 448.5,1023.6 46.7,148.6 36.6,259.7 -30.1,330.3 z m -5527.2,915.4 c 0,397 139.8,783.2 394,1087.3 21.6,26 18.2,64.6 -7.8,86.3 -26,21.8 -64.7,18.4 -86.3,-7.6 -272.6,-326.2 -422.5,-740.2 -422.5,-1166 0,-437 157.1,-859.3 442.8,-1189.4 11.9,-14 29.2,-21.4 46.2,-21.4 14.3,0 28.5,5.1 40.2,15 25.6,22.3 28.3,61 6.3,86.5 -266.4,307.7 -412.9,701.8 -412.9,1109.3 z m 1074.4,-1096 c -393.3,223.8 -637.6,643.8 -637.6,1096 0,441.4 224.5,843 600.8,1074.4 28.9,17.7 37.9,55.4 20.2,84.2 -17.7,29 -55.4,37.9 -84.4,20.2 -412.9,-253.7 -659.2,-694.4 -659.2,-1178.8 0,-496.1 267.9,-956.8 699.7,-1202.7 9.4,-5.3 20,-8.1 30.1,-8.1 21.4,0 42.1,11.3 53.4,31.1 16.7,29.4 6.4,66.9 -23,83.7 z m 622.8,961.9 c -73.8,0 -134.1,60.3 -134.1,134.1 0,74.1 60.3,134.1 134.1,134.1 74.1,0 134.1,-60 134.1,-134.1 0,-73.8 -60,-134.1 -134.1,-134.1 z m 0,390.8 c -141.4,0 -256.7,-115 -256.7,-256.7 0,-141.4 115.3,-256.7 256.7,-256.7 141.7,0 256.7,115.3 256.7,256.7 0,141.7 -115,256.7 -256.7,256.7 z m 0,-827.6 c -314.6,0 -570.9,256.3 -570.9,570.9 0,314.9 256.3,570.9 570.9,570.9 314.9,0 570.9,-256 570.9,-570.9 0,-314.6 -256,-570.9 -570.9,-570.9 z m 0,1264.4 c -382.2,0 -693.5,-311 -693.5,-693.5 0,-382.2 311.3,-693.5 693.5,-693.5 382.5,0 693.5,311.3 693.5,693.5 0,382.5 -311,693.5 -693.5,693.5 z m 0,-827.6 c -73.8,0 -134.1,60.3 -134.1,134.1 0,74.1 60.3,134.1 134.1,134.1 74.1,0 134.1,-60 134.1,-134.1 0,-73.8 -60,-134.1 -134.1,-134.1 z m 0,390.8 c -141.4,0 -256.7,-115 -256.7,-256.7 0,-141.4 115.3,-256.7 256.7,-256.7 141.7,0 256.7,115.3 256.7,256.7 0,141.7 -115,256.7 -256.7,256.7 z m 0,-827.6 c -314.6,0 -570.9,256.3 -570.9,570.9 0,314.9 256.3,570.9 570.9,570.9 314.9,0 570.9,-256 570.9,-570.9 0,-314.6 -256,-570.9 -570.9,-570.9 z m 0,1264.4 c -382.2,0 -693.5,-311 -693.5,-693.5 0,-382.2 311.3,-693.5 693.5,-693.5 382.5,0 693.5,311.3 693.5,693.5 0,382.5 -311,693.5 -693.5,693.5 z m 0,-827.6 c -73.8,0 -134.1,60.3 -134.1,134.1 0,74.1 60.3,134.1 134.1,134.1 74.1,0 134.1,-60 134.1,-134.1 0,-73.8 -60,-134.1 -134.1,-134.1 z m 0,390.8 c -141.4,0 -256.7,-115 -256.7,-256.7 0,-141.4 115.3,-256.7 256.7,-256.7 141.7,0 256.7,115.3 256.7,256.7 0,141.7 -115,256.7 -256.7,256.7 z m 0,-390.8 c -73.8,0 -134.1,60.3 -134.1,134.1 0,74.1 60.3,134.1 134.1,134.1 74.1,0 134.1,-60 134.1,-134.1 0,-73.8 -60,-134.1 -134.1,-134.1 z m 0,390.8 c -141.4,0 -256.7,-115 -256.7,-256.7 0,-141.4 115.3,-256.7 256.7,-256.7 141.7,0 256.7,115.3 256.7,256.7 0,141.7 -115,256.7 -256.7,256.7 z m -622.8,-1352.7 c -393.3,223.8 -637.6,643.8 -637.6,1096 0,441.4 224.5,843 600.8,1074.4 28.9,17.7 37.9,55.4 20.2,84.2 -17.7,29 -55.4,37.9 -84.4,20.2 -412.9,-253.7 -659.2,-694.4 -659.2,-1178.8 0,-496.1 267.9,-956.8 699.7,-1202.7 9.4,-5.3 20,-8.1 30.1,-8.1 21.4,0 42.1,11.3 53.4,31.1 16.7,29.4 6.4,66.9 -23,83.7 z m -661.5,-13.3 c -266.4,307.7 -412.9,701.8 -412.9,1109.3 0,397 139.8,783.2 394,1087.3 21.6,26 18.2,64.6 -7.8,86.3 -26,21.8 -64.7,18.4 -86.3,-7.6 -272.6,-326.2 -422.5,-740.2 -422.5,-1166 0,-437 157.1,-859.3 442.8,-1189.4 11.9,-14 29.2,-21.4 46.2,-21.4 14.3,0 28.5,5.1 40.2,15 25.6,22.3 28.3,61 6.3,86.5 z m 0,0 c -266.4,307.7 -412.9,701.8 -412.9,1109.3 0,397 139.8,783.2 394,1087.3 21.6,26 18.2,64.6 -7.8,86.3 -26,21.8 -64.7,18.4 -86.3,-7.6 -272.6,-326.2 -422.5,-740.2 -422.5,-1166 0,-437 157.1,-859.3 442.8,-1189.4 11.9,-14 29.2,-21.4 46.2,-21.4 14.3,0 28.5,5.1 40.2,15 25.6,22.3 28.3,61 6.3,86.5 z m 661.5,13.3 c -393.3,223.8 -637.6,643.8 -637.6,1096 0,441.4 224.5,843 600.8,1074.4 28.9,17.7 37.9,55.4 20.2,84.2 -17.7,29 -55.4,37.9 -84.4,20.2 -412.9,-253.7 -659.2,-694.4 -659.2,-1178.8 0,-496.1 267.9,-956.8 699.7,-1202.7 9.4,-5.3 20,-8.1 30.1,-8.1 21.4,0 42.1,11.3 53.4,31.1 16.7,29.4 6.4,66.9 -23,83.7 z m 622.8,961.9 c -73.8,0 -134.1,60.3 -134.1,134.1 0,74.1 60.3,134.1 134.1,134.1 74.1,0 134.1,-60 134.1,-134.1 0,-73.8 -60,-134.1 -134.1,-134.1 z m 0,390.8 c -141.4,0 -256.7,-115 -256.7,-256.7 0,-141.4 115.3,-256.7 256.7,-256.7 141.7,0 256.7,115.3 256.7,256.7 0,141.7 -115,256.7 -256.7,256.7 z m 0,-390.8 c -73.8,0 -134.1,60.3 -134.1,134.1 0,74.1 60.3,134.1 134.1,134.1 74.1,0 134.1,-60 134.1,-134.1 0,-73.8 -60,-134.1 -134.1,-134.1 z m 0,390.8 c -141.4,0 -256.7,-115 -256.7,-256.7 0,-141.4 115.3,-256.7 256.7,-256.7 141.7,0 256.7,115.3 256.7,256.7 0,141.7 -115,256.7 -256.7,256.7 z m 0,-390.8 c -73.8,0 -134.1,60.3 -134.1,134.1 0,74.1 60.3,134.1 134.1,134.1 74.1,0 134.1,-60 134.1,-134.1 0,-73.8 -60,-134.1 -134.1,-134.1 z m 0,390.8 c -141.4,0 -256.7,-115 -256.7,-256.7 0,-141.4 115.3,-256.7 256.7,-256.7 141.7,0 256.7,115.3 256.7,256.7 0,141.7 -115,256.7 -256.7,256.7 z m 0,-827.6 c -314.6,0 -570.9,256.3 -570.9,570.9 0,314.9 256.3,570.9 570.9,570.9 314.9,0 570.9,-256 570.9,-570.9 0,-314.6 -256,-570.9 -570.9,-570.9 z m 0,1264.4 c -382.2,0 -693.5,-311 -693.5,-693.5 0,-382.2 311.3,-693.5 693.5,-693.5 382.5,0 693.5,311.3 693.5,693.5 0,382.5 -311,693.5 -693.5,693.5 z m 0,-827.6 c -73.8,0 -134.1,60.3 -134.1,134.1 0,74.1 60.3,134.1 134.1,134.1 74.1,0 134.1,-60 134.1,-134.1 0,-73.8 -60,-134.1 -134.1,-134.1 z m 0,390.8 c -141.4,0 -256.7,-115 -256.7,-256.7 0,-141.4 115.3,-256.7 256.7,-256.7 141.7,0 256.7,115.3 256.7,256.7 0,141.7 -115,256.7 -256.7,256.7 z m 0,-390.8 c -73.8,0 -134.1,60.3 -134.1,134.1 0,74.1 60.3,134.1 134.1,134.1 74.1,0 134.1,-60 134.1,-134.1 0,-73.8 -60,-134.1 -134.1,-134.1 z m 0,390.8 c -141.4,0 -256.7,-115 -256.7,-256.7 0,-141.4 115.3,-256.7 256.7,-256.7 141.7,0 256.7,115.3 256.7,256.7 0,141.7 -115,256.7 -256.7,256.7 z m 0,-390.8 c -73.8,0 -134.1,60.3 -134.1,134.1 0,74.1 60.3,134.1 134.1,134.1 74.1,0 134.1,-60 134.1,-134.1 0,-73.8 -60,-134.1 -134.1,-134.1 z m 0,390.8 c -141.4,0 -256.7,-115 -256.7,-256.7 0,-141.4 115.3,-256.7 256.7,-256.7 141.7,0 256.7,115.3 256.7,256.7 0,141.7 -115,256.7 -256.7,256.7 z m 0,-390.8 c -73.8,0 -134.1,60.3 -134.1,134.1 0,74.1 60.3,134.1 134.1,134.1 74.1,0 134.1,-60 134.1,-134.1 0,-73.8 -60,-134.1 -134.1,-134.1 z m 0,390.8 c -141.4,0 -256.7,-115 -256.7,-256.7 0,-141.4 115.3,-256.7 256.7,-256.7 141.7,0 256.7,115.3 256.7,256.7 0,141.7 -115,256.7 -256.7,256.7 z m 0,-390.8 c -73.8,0 -134.1,60.3 -134.1,134.1 0,74.1 60.3,134.1 134.1,134.1 74.1,0 134.1,-60 134.1,-134.1 0,-73.8 -60,-134.1 -134.1,-134.1 z m 0,390.8 c -141.4,0 -256.7,-115 -256.7,-256.7 0,-141.4 115.3,-256.7 256.7,-256.7 141.7,0 256.7,115.3 256.7,256.7 0,141.7 -115,256.7 -256.7,256.7 z m 0,-827.6 c -314.6,0 -570.9,256.3 -570.9,570.9 0,314.9 256.3,570.9 570.9,570.9 314.9,0 570.9,-256 570.9,-570.9 0,-314.6 -256,-570.9 -570.9,-570.9 z m 0,1264.4 c -382.2,0 -693.5,-311 -693.5,-693.5 0,-382.2 311.3,-693.5 693.5,-693.5 382.5,0 693.5,311.3 693.5,693.5 0,382.5 -311,693.5 -693.5,693.5 z m 0,-827.6 c -73.8,0 -134.1,60.3 -134.1,134.1 0,74.1 60.3,134.1 134.1,134.1 74.1,0 134.1,-60 134.1,-134.1 0,-73.8 -60,-134.1 -134.1,-134.1 z m 0,390.8 c -141.4,0 -256.7,-115 -256.7,-256.7 0,-141.4 115.3,-256.7 256.7,-256.7 141.7,0 256.7,115.3 256.7,256.7 0,141.7 -115,256.7 -256.7,256.7 z m 0,-390.8 c -73.8,0 -134.1,60.3 -134.1,134.1 0,74.1 60.3,134.1 134.1,134.1 74.1,0 134.1,-60 134.1,-134.1 0,-73.8 -60,-134.1 -134.1,-134.1 z m 0,390.8 c -141.4,0 -256.7,-115 -256.7,-256.7 0,-141.4 115.3,-256.7 256.7,-256.7 141.7,0 256.7,115.3 256.7,256.7 0,141.7 -115,256.7 -256.7,256.7 z m 0,-390.8 c -73.8,0 -134.1,60.3 -134.1,134.1 0,74.1 60.3,134.1 134.1,134.1 74.1,0 134.1,-60 134.1,-134.1 0,-73.8 -60,-134.1 -134.1,-134.1 z m 0,390.8 c -141.4,0 -256.7,-115 -256.7,-256.7 0,-141.4 115.3,-256.7 256.7,-256.7 141.7,0 256.7,115.3 256.7,256.7 0,141.7 -115,256.7 -256.7,256.7 z m 0,-390.8 c -73.8,0 -134.1,60.3 -134.1,134.1 0,74.1 60.3,134.1 134.1,134.1 74.1,0 134.1,-60 134.1,-134.1 0,-73.8 -60,-134.1 -134.1,-134.1 z m 0,390.8 c -141.4,0 -256.7,-115 -256.7,-256.7 0,-141.4 115.3,-256.7 256.7,-256.7 141.7,0 256.7,115.3 256.7,256.7 0,141.7 -115,256.7 -256.7,256.7 z m -622.8,-1352.7 c -393.3,223.8 -637.6,643.8 -637.6,1096 0,441.4 224.5,843 600.8,1074.4 28.9,17.7 37.9,55.4 20.2,84.2 -17.7,29 -55.4,37.9 -84.4,20.2 -412.9,-253.7 -659.2,-694.4 -659.2,-1178.8 0,-496.1 267.9,-956.8 699.7,-1202.7 9.4,-5.3 20,-8.1 30.1,-8.1 21.4,0 42.1,11.3 53.4,31.1 16.7,29.4 6.4,66.9 -23,83.7 z m -661.5,-13.3 c -266.4,307.7 -412.9,701.8 -412.9,1109.3 0,397 139.8,783.2 394,1087.3 21.6,26 18.2,64.6 -7.8,86.3 -26,21.8 -64.7,18.4 -86.3,-7.6 -272.6,-326.2 -422.5,-740.2 -422.5,-1166 0,-437 157.1,-859.3 442.8,-1189.4 11.9,-14 29.2,-21.4 46.2,-21.4 14.3,0 28.5,5.1 40.2,15 25.6,22.3 28.3,61 6.3,86.5 z m 0,0 c -266.4,307.7 -412.9,701.8 -412.9,1109.3 0,397 139.8,783.2 394,1087.3 21.6,26 18.2,64.6 -7.8,86.3 -26,21.8 -64.7,18.4 -86.3,-7.6 -272.6,-326.2 -422.5,-740.2 -422.5,-1166 0,-437 157.1,-859.3 442.8,-1189.4 11.9,-14 29.2,-21.4 46.2,-21.4 14.3,0 28.5,5.1 40.2,15 25.6,22.3 28.3,61 6.3,86.5 z m 661.5,13.3 c -393.3,223.8 -637.6,643.8 -637.6,1096 0,441.4 224.5,843 600.8,1074.4 28.9,17.7 37.9,55.4 20.2,84.2 -17.7,29 -55.4,37.9 -84.4,20.2 -412.9,-253.7 -659.2,-694.4 -659.2,-1178.8 0,-496.1 267.9,-956.8 699.7,-1202.7 9.4,-5.3 20,-8.1 30.1,-8.1 21.4,0 42.1,11.3 53.4,31.1 16.7,29.4 6.4,66.9 -23,83.7 z m 622.8,961.9 c -73.8,0 -134.1,60.3 -134.1,134.1 0,74.1 60.3,134.1 134.1,134.1 74.1,0 134.1,-60 134.1,-134.1 0,-73.8 -60,-134.1 -134.1,-134.1 z m 0,390.8 c -141.4,0 -256.7,-115 -256.7,-256.7 0,-141.4 115.3,-256.7 256.7,-256.7 141.7,0 256.7,115.3 256.7,256.7 0,141.7 -115,256.7 -256.7,256.7 z m 0,-390.8 c -73.8,0 -134.1,60.3 -134.1,134.1 0,74.1 60.3,134.1 134.1,134.1 74.1,0 134.1,-60 134.1,-134.1 0,-73.8 -60,-134.1 -134.1,-134.1 z m 0,390.8 c -141.4,0 -256.7,-115 -256.7,-256.7 0,-141.4 115.3,-256.7 256.7,-256.7 141.7,0 256.7,115.3 256.7,256.7 0,141.7 -115,256.7 -256.7,256.7 z m 0,-390.8 c -73.8,0 -134.1,60.3 -134.1,134.1 0,74.1 60.3,134.1 134.1,134.1 74.1,0 134.1,-60 134.1,-134.1 0,-73.8 -60,-134.1 -134.1,-134.1 z m 0,390.8 c -141.4,0 -256.7,-115 -256.7,-256.7 0,-141.4 115.3,-256.7 256.7,-256.7 141.7,0 256.7,115.3 256.7,256.7 0,141.7 -115,256.7 -256.7,256.7 z m 0,-390.8 c -73.8,0 -134.1,60.3 -134.1,134.1 0,74.1 60.3,134.1 134.1,134.1 74.1,0 134.1,-60 134.1,-134.1 0,-73.8 -60,-134.1 -134.1,-134.1 z m 0,390.8 c -141.4,0 -256.7,-115 -256.7,-256.7 0,-141.4 115.3,-256.7 256.7,-256.7 141.7,0 256.7,115.3 256.7,256.7 0,141.7 -115,256.7 -256.7,256.7 z m 0,-390.8 c -73.8,0 -134.1,60.3 -134.1,134.1 0,74.1 60.3,134.1 134.1,134.1 74.1,0 134.1,-60 134.1,-134.1 0,-73.8 -60,-134.1 -134.1,-134.1 z m 0,390.8 c -141.4,0 -256.7,-115 -256.7,-256.7 0,-141.4 115.3,-256.7 256.7,-256.7 141.7,0 256.7,115.3 256.7,256.7 0,141.7 -115,256.7 -256.7,256.7 z m 0,-827.6 c -314.6,0 -570.9,256.3 -570.9,570.9 0,314.9 256.3,570.9 570.9,570.9 314.9,0 570.9,-256 570.9,-570.9 0,-314.6 -256,-570.9 -570.9,-570.9 z m 0,1264.4 c -382.2,0 -693.5,-311 -693.5,-693.5 0,-382.2 311.3,-693.5 693.5,-693.5 382.5,0 693.5,311.3 693.5,693.5 0,382.5 -311,693.5 -693.5,693.5 z m 0,-827.6 c -73.8,0 -134.1,60.3 -134.1,134.1 0,74.1 60.3,134.1 134.1,134.1 74.1,0 134.1,-60 134.1,-134.1 0,-73.8 -60,-134.1 -134.1,-134.1 z m 0,390.8 c -141.4,0 -256.7,-115 -256.7,-256.7 0,-141.4 115.3,-256.7 256.7,-256.7 141.7,0 256.7,115.3 256.7,256.7 0,141.7 -115,256.7 -256.7,256.7 z m 0,-390.8 c -73.8,0 -134.1,60.3 -134.1,134.1 0,74.1 60.3,134.1 134.1,134.1 74.1,0 134.1,-60 134.1,-134.1 0,-73.8 -60,-134.1 -134.1,-134.1 z m 0,390.8 c -141.4,0 -256.7,-115 -256.7,-256.7 0,-141.4 115.3,-256.7 256.7,-256.7 141.7,0 256.7,115.3 256.7,256.7 0,141.7 -115,256.7 -256.7,256.7 z m 0,-390.8 c -73.8,0 -134.1,60.3 -134.1,134.1 0,74.1 60.3,134.1 134.1,134.1 74.1,0 134.1,-60 134.1,-134.1 0,-73.8 -60,-134.1 -134.1,-134.1 z m 0,390.8 c -141.4,0 -256.7,-115 -256.7,-256.7 0,-141.4 115.3,-256.7 256.7,-256.7 141.7,0 256.7,115.3 256.7,256.7 0,141.7 -115,256.7 -256.7,256.7 z m 0,-390.8 c -73.8,0 -134.1,60.3 -134.1,134.1 0,74.1 60.3,134.1 134.1,134.1 74.1,0 134.1,-60 134.1,-134.1 0,-73.8 -60,-134.1 -134.1,-134.1 z m 0,390.8 c -141.4,0 -256.7,-115 -256.7,-256.7 0,-141.4 115.3,-256.7 256.7,-256.7 141.7,0 256.7,115.3 256.7,256.7 0,141.7 -115,256.7 -256.7,256.7 z m 0,-390.8 c -73.8,0 -134.1,60.3 -134.1,134.1 0,74.1 60.3,134.1 134.1,134.1 74.1,0 134.1,-60 134.1,-134.1 0,-73.8 -60,-134.1 -134.1,-134.1 z m 0,390.8 c -141.4,0 -256.7,-115 -256.7,-256.7 0,-141.4 115.3,-256.7 256.7,-256.7 141.7,0 256.7,115.3 256.7,256.7 0,141.7 -115,256.7 -256.7,256.7 z m 0,-390.8 c -73.8,0 -134.1,60.3 -134.1,134.1 0,74.1 60.3,134.1 134.1,134.1 74.1,0 134.1,-60 134.1,-134.1 0,-73.8 -60,-134.1 -134.1,-134.1 z m 0,390.8 c -141.4,0 -256.7,-115 -256.7,-256.7 0,-141.4 115.3,-256.7 256.7,-256.7 141.7,0 256.7,115.3 256.7,256.7 0,141.7 -115,256.7 -256.7,256.7 z m 0,-390.8 c -73.8,0 -134.1,60.3 -134.1,134.1 0,74.1 60.3,134.1 134.1,134.1 74.1,0 134.1,-60 134.1,-134.1 0,-73.8 -60,-134.1 -134.1,-134.1 z m 0,390.8 c -141.4,0 -256.7,-115 -256.7,-256.7 0,-141.4 115.3,-256.7 256.7,-256.7 141.7,0 256.7,115.3 256.7,256.7 0,141.7 -115,256.7 -256.7,256.7 z m 0,-390.8 c -73.8,0 -134.1,60.3 -134.1,134.1 0,74.1 60.3,134.1 134.1,134.1 74.1,0 134.1,-60 134.1,-134.1 0,-73.8 -60,-134.1 -134.1,-134.1 z m 0,390.8 c -141.4,0 -256.7,-115 -256.7,-256.7 0,-141.4 115.3,-256.7 256.7,-256.7 141.7,0 256.7,115.3 256.7,256.7 0,141.7 -115,256.7 -256.7,256.7 z m 0,-390.8 c -73.8,0 -134.1,60.3 -134.1,134.1 0,74.1 60.3,134.1 134.1,134.1 74.1,0 134.1,-60 134.1,-134.1 0,-73.8 -60,-134.1 -134.1,-134.1 z m 0,390.8 c -141.4,0 -256.7,-115 -256.7,-256.7 0,-141.4 115.3,-256.7 256.7,-256.7 141.7,0 256.7,115.3 256.7,256.7 0,141.7 -115,256.7 -256.7,256.7 z m 0,-827.6 c -314.6,0 -570.9,256.3 -570.9,570.9 0,314.9 256.3,570.9 570.9,570.9 314.9,0 570.9,-256 570.9,-570.9 0,-314.6 -256,-570.9 -570.9,-570.9 z m 0,1264.4 c -382.2,0 -693.5,-311 -693.5,-693.5 0,-382.2 311.3,-693.5 693.5,-693.5 382.5,0 693.5,311.3 693.5,693.5 0,382.5 -311,693.5 -693.5,693.5 z m 0,-827.6 c -73.8,0 -134.1,60.3 -134.1,134.1 0,74.1 60.3,134.1 134.1,134.1 74.1,0 134.1,-60 134.1,-134.1 0,-73.8 -60,-134.1 -134.1,-134.1 z m 0,390.8 c -141.4,0 -256.7,-115 -256.7,-256.7 0,-141.4 115.3,-256.7 256.7,-256.7 141.7,0 256.7,115.3 256.7,256.7 0,141.7 -115,256.7 -256.7,256.7 z m 0,-390.8 c -73.8,0 -134.1,60.3 -134.1,134.1 0,74.1 60.3,134.1 134.1,134.1 74.1,0 134.1,-60 134.1,-134.1 0,-73.8 -60,-134.1 -134.1,-134.1 z m 0,390.8 c -141.4,0 -256.7,-115 -256.7,-256.7 0,-141.4 115.3,-256.7 256.7,-256.7 141.7,0 256.7,115.3 256.7,256.7 0,141.7 -115,256.7 -256.7,256.7 z m 0,-390.8 c -73.8,0 -134.1,60.3 -134.1,134.1 0,74.1 60.3,134.1 134.1,134.1 74.1,0 134.1,-60 134.1,-134.1 0,-73.8 -60,-134.1 -134.1,-134.1 z m 0,390.8 c -141.4,0 -256.7,-115 -256.7,-256.7 0,-141.4 115.3,-256.7 256.7,-256.7 141.7,0 256.7,115.3 256.7,256.7 0,141.7 -115,256.7 -256.7,256.7 z m 0,-390.8 c -73.8,0 -134.1,60.3 -134.1,134.1 0,74.1 60.3,134.1 134.1,134.1 74.1,0 134.1,-60 134.1,-134.1 0,-73.8 -60,-134.1 -134.1,-134.1 z m 0,390.8 c -141.4,0 -256.7,-115 -256.7,-256.7 0,-141.4 115.3,-256.7 256.7,-256.7 141.7,0 256.7,115.3 256.7,256.7 0,141.7 -115,256.7 -256.7,256.7 z m 0,-390.8 c -73.8,0 -134.1,60.3 -134.1,134.1 0,74.1 60.3,134.1 134.1,134.1 74.1,0 134.1,-60 134.1,-134.1 0,-73.8 -60,-134.1 -134.1,-134.1 z m 0,390.8 c -141.4,0 -256.7,-115 -256.7,-256.7 0,-141.4 115.3,-256.7 256.7,-256.7 141.7,0 256.7,115.3 256.7,256.7 0,141.7 -115,256.7 -256.7,256.7 z m 0,-390.8 c -73.8,0 -134.1,60.3 -134.1,134.1 0,74.1 60.3,134.1 134.1,134.1 74.1,0 134.1,-60 134.1,-134.1 0,-73.8 -60,-134.1 -134.1,-134.1 z m 0,390.8 c -141.4,0 -256.7,-115 -256.7,-256.7 0,-141.4 115.3,-256.7 256.7,-256.7 141.7,0 256.7,115.3 256.7,256.7 0,141.7 -115,256.7 -256.7,256.7 z m -622.8,-1352.7 c -393.3,223.8 -637.6,643.8 -637.6,1096 0,441.4 224.5,843 600.8,1074.4 28.9,17.7 37.9,55.4 20.2,84.2 -17.7,29 -55.4,37.9 -84.4,20.2 -412.9,-253.7 -659.2,-694.4 -659.2,-1178.8 0,-496.1 267.9,-956.8 699.7,-1202.7 9.4,-5.3 20,-8.1 30.1,-8.1 21.4,0 42.1,11.3 53.4,31.1 16.7,29.4 6.4,66.9 -23,83.7 z m -661.5,-13.3 c -266.4,307.7 -412.9,701.8 -412.9,1109.3 0,397 139.8,783.2 394,1087.3 21.6,26 18.2,64.6 -7.8,86.3 -26,21.8 -64.7,18.4 -86.3,-7.6 -272.6,-326.2 -422.5,-740.2 -422.5,-1166 0,-437 157.1,-859.3 442.8,-1189.4 11.9,-14 29.2,-21.4 46.2,-21.4 14.3,0 28.5,5.1 40.2,15 25.6,22.3 28.3,61 6.3,86.5 z m 0,0 c -266.4,307.7 -412.9,701.8 -412.9,1109.3 0,397 139.8,783.2 394,1087.3 21.6,26 18.2,64.6 -7.8,86.3 -26,21.8 -64.7,18.4 -86.3,-7.6 -272.6,-326.2 -422.5,-740.2 -422.5,-1166 0,-437 157.1,-859.3 442.8,-1189.4 11.9,-14 29.2,-21.4 46.2,-21.4 14.3,0 28.5,5.1 40.2,15 25.6,22.3 28.3,61 6.3,86.5 z m 661.5,13.3 c -393.3,223.8 -637.6,643.8 -637.6,1096 0,441.4 224.5,843 600.8,1074.4 28.9,17.7 37.9,55.4 20.2,84.2 -17.7,29 -55.4,37.9 -84.4,20.2 -412.9,-253.7 -659.2,-694.4 -659.2,-1178.8 0,-496.1 267.9,-956.8 699.7,-1202.7 9.4,-5.3 20,-8.1 30.1,-8.1 21.4,0 42.1,11.3 53.4,31.1 16.7,29.4 6.4,66.9 -23,83.7 z m 622.8,961.9 c -73.8,0 -134.1,60.3 -134.1,134.1 0,74.1 60.3,134.1 134.1,134.1 74.1,0 134.1,-60 134.1,-134.1 0,-73.8 -60,-134.1 -134.1,-134.1 z m 0,390.8 c -141.4,0 -256.7,-115 -256.7,-256.7 0,-141.4 115.3,-256.7 256.7,-256.7 141.7,0 256.7,115.3 256.7,256.7 0,141.7 -115,256.7 -256.7,256.7 z m 0,-390.8 c -73.8,0 -134.1,60.3 -134.1,134.1 0,74.1 60.3,134.1 134.1,134.1 74.1,0 134.1,-60 134.1,-134.1 0,-73.8 -60,-134.1 -134.1,-134.1 z m 0,390.8 c -141.4,0 -256.7,-115 -256.7,-256.7 0,-141.4 115.3,-256.7 256.7,-256.7 141.7,0 256.7,115.3 256.7,256.7 0,141.7 -115,256.7 -256.7,256.7 z m 0,-390.8 c -73.8,0 -134.1,60.3 -134.1,134.1 0,74.1 60.3,134.1 134.1,134.1 74.1,0 134.1,-60 134.1,-134.1 0,-73.8 -60,-134.1 -134.1,-134.1 z m 0,390.8 c -141.4,0 -256.7,-115 -256.7,-256.7 0,-141.4 115.3,-256.7 256.7,-256.7 141.7,0 256.7,115.3 256.7,256.7 0,141.7 -115,256.7 -256.7,256.7 z m 0,-390.8 c -73.8,0 -134.1,60.3 -134.1,134.1 0,74.1 60.3,134.1 134.1,134.1 74.1,0 134.1,-60 134.1,-134.1 0,-73.8 -60,-134.1 -134.1,-134.1 z m 0,390.8 c -141.4,0 -256.7,-115 -256.7,-256.7 0,-141.4 115.3,-256.7 256.7,-256.7 141.7,0 256.7,115.3 256.7,256.7 0,141.7 -115,256.7 -256.7,256.7 z m 0,-390.8 c -73.8,0 -134.1,60.3 -134.1,134.1 0,74.1 60.3,134.1 134.1,134.1 74.1,0 134.1,-60 134.1,-134.1 0,-73.8 -60,-134.1 -134.1,-134.1 z m 0,390.8 c -141.4,0 -256.7,-115 -256.7,-256.7 0,-141.4 115.3,-256.7 256.7,-256.7 141.7,0 256.7,115.3 256.7,256.7 0,141.7 -115,256.7 -256.7,256.7 z m 0,-390.8 c -73.8,0 -134.1,60.3 -134.1,134.1 0,74.1 60.3,134.1 134.1,134.1 74.1,0 134.1,-60 134.1,-134.1 0,-73.8 -60,-134.1 -134.1,-134.1 z m 0,390.8 c -141.4,0 -256.7,-115 -256.7,-256.7 0,-141.4 115.3,-256.7 256.7,-256.7 141.7,0 256.7,115.3 256.7,256.7 0,141.7 -115,256.7 -256.7,256.7 z m 0,-390.8 c -73.8,0 -134.1,60.3 -134.1,134.1 0,74.1 60.3,134.1 134.1,134.1 74.1,0 134.1,-60 134.1,-134.1 0,-73.8 -60,-134.1 -134.1,-134.1 z m 0,390.8 c -141.4,0 -256.7,-115 -256.7,-256.7 0,-141.4 115.3,-256.7 256.7,-256.7 141.7,0 256.7,115.3 256.7,256.7 0,141.7 -115,256.7 -256.7,256.7 z m 0,-827.6 c -314.6,0 -570.9,256.3 -570.9,570.9 0,314.9 256.3,570.9 570.9,570.9 314.9,0 570.9,-256 570.9,-570.9 0,-314.6 -256,-570.9 -570.9,-570.9 z m 0,1264.4 c -382.2,0 -693.5,-311 -693.5,-693.5 0,-382.2 311.3,-693.5 693.5,-693.5 382.5,0 693.5,311.3 693.5,693.5 0,382.5 -311,693.5 -693.5,693.5 z m 0,-827.6 c -73.8,0 -134.1,60.3 -134.1,134.1 0,74.1 60.3,134.1 134.1,134.1 74.1,0 134.1,-60 134.1,-134.1 0,-73.8 -60,-134.1 -134.1,-134.1 z m 0,390.8 c -141.4,0 -256.7,-115 -256.7,-256.7 0,-141.4 115.3,-256.7 256.7,-256.7 141.7,0 256.7,115.3 256.7,256.7 0,141.7 -115,256.7 -256.7,256.7 z m 0,-390.8 c -73.8,0 -134.1,60.3 -134.1,134.1 0,74.1 60.3,134.1 134.1,134.1 74.1,0 134.1,-60 134.1,-134.1 0,-73.8 -60,-134.1 -134.1,-134.1 z m 0,390.8 c -141.4,0 -256.7,-115 -256.7,-256.7 0,-141.4 115.3,-256.7 256.7,-256.7 141.7,0 256.7,115.3 256.7,256.7 0,141.7 -115,256.7 -256.7,256.7 z m 0,-390.8 c -73.8,0 -134.1,60.3 -134.1,134.1 0,74.1 60.3,134.1 134.1,134.1 74.1,0 134.1,-60 134.1,-134.1 0,-73.8 -60,-134.1 -134.1,-134.1 z m 0,390.8 c -141.4,0 -256.7,-115 -256.7,-256.7 0,-141.4 115.3,-256.7 256.7,-256.7 141.7,0 256.7,115.3 256.7,256.7 0,141.7 -115,256.7 -256.7,256.7 z m 0,-390.8 c -73.8,0 -134.1,60.3 -134.1,134.1 0,74.1 60.3,134.1 134.1,134.1 74.1,0 134.1,-60 134.1,-134.1 0,-73.8 -60,-134.1 -134.1,-134.1 z m 0,390.8 c -141.4,0 -256.7,-115 -256.7,-256.7 0,-141.4 115.3,-256.7 256.7,-256.7 141.7,0 256.7,115.3 256.7,256.7 0,141.7 -115,256.7 -256.7,256.7 z m 0,-390.8 c -73.8,0 -134.1,60.3 -134.1,134.1 0,74.1 60.3,134.1 134.1,134.1 74.1,0 134.1,-60 134.1,-134.1 0,-73.8 -60,-134.1 -134.1,-134.1 z m 0,390.8 c -141.4,0 -256.7,-115 -256.7,-256.7 0,-141.4 115.3,-256.7 256.7,-256.7 141.7,0 256.7,115.3 256.7,256.7 0,141.7 -115,256.7 -256.7,256.7 z m 0,-390.8 c -73.8,0 -134.1,60.3 -134.1,134.1 0,74.1 60.3,134.1 134.1,134.1 74.1,0 134.1,-60 134.1,-134.1 0,-73.8 -60,-134.1 -134.1,-134.1 z m 0,390.8 c -141.4,0 -256.7,-115 -256.7,-256.7 0,-141.4 115.3,-256.7 256.7,-256.7 141.7,0 256.7,115.3 256.7,256.7 0,141.7 -115,256.7 -256.7,256.7 z m 0,-390.8 c -73.8,0 -134.1,60.3 -134.1,134.1 0,74.1 60.3,134.1 134.1,134.1 74.1,0 134.1,-60 134.1,-134.1 0,-73.8 -60,-134.1 -134.1,-134.1 z m 0,390.8 c -141.4,0 -256.7,-115 -256.7,-256.7 0,-141.4 115.3,-256.7 256.7,-256.7 141.7,0 256.7,115.3 256.7,256.7 0,141.7 -115,256.7 -256.7,256.7 z m 0,-390.8 c -73.8,0 -134.1,60.3 -134.1,134.1 0,74.1 60.3,134.1 134.1,134.1 74.1,0 134.1,-60 134.1,-134.1 0,-73.8 -60,-134.1 -134.1,-134.1 z m 0,390.8 c -141.4,0 -256.7,-115 -256.7,-256.7 0,-141.4 115.3,-256.7 256.7,-256.7 141.7,0 256.7,115.3 256.7,256.7 0,141.7 -115,256.7 -256.7,256.7 z m 0,-390.8 c -73.8,0 -134.1,60.3 -134.1,134.1 0,74.1 60.3,134.1 134.1,134.1 74.1,0 134.1,-60 134.1,-134.1 0,-73.8 -60,-134.1 -134.1,-134.1 z m 0,390.8 c -141.4,0 -256.7,-115 -256.7,-256.7 0,-141.4 115.3,-256.7 256.7,-256.7 141.7,0 256.7,115.3 256.7,256.7 0,141.7 -115,256.7 -256.7,256.7 z m 0,-390.8 c -73.8,0 -134.1,60.3 -134.1,134.1 0,74.1 60.3,134.1 134.1,134.1 74.1,0 134.1,-60 134.1,-134.1 0,-73.8 -60,-134.1 -134.1,-134.1 z m 0,390.8 c -141.4,0 -256.7,-115 -256.7,-256.7 0,-141.4 115.3,-256.7 256.7,-256.7 141.7,0 256.7,115.3 256.7,256.7 0,141.7 -115,256.7 -256.7,256.7 z m 0,-390.8 c -73.8,0 -134.1,60.3 -134.1,134.1 0,74.1 60.3,134.1 134.1,134.1 74.1,0 134.1,-60 134.1,-134.1 0,-73.8 -60,-134.1 -134.1,-134.1 z m 0,390.8 c -141.4,0 -256.7,-115 -256.7,-256.7 0,-141.4 115.3,-256.7 256.7,-256.7 141.7,0 256.7,115.3 256.7,256.7 0,141.7 -115,256.7 -256.7,256.7 z m 0,-390.8 c -73.8,0 -134.1,60.3 -134.1,134.1 0,74.1 60.3,134.1 134.1,134.1 74.1,0 134.1,-60 134.1,-134.1 0,-73.8 -60,-134.1 -134.1,-134.1 z m 0,390.8 c -141.4,0 -256.7,-115 -256.7,-256.7 0,-141.4 115.3,-256.7 256.7,-256.7 141.7,0 256.7,115.3 256.7,256.7 0,141.7 -115,256.7 -256.7,256.7 z m 0,-390.8 c -73.8,0 -134.1,60.3 -134.1,134.1 0,74.1 60.3,134.1 134.1,134.1 74.1,0 134.1,-60 134.1,-134.1 0,-73.8 -60,-134.1 -134.1,-134.1 z m 0,390.8 c -141.4,0 -256.7,-115 -256.7,-256.7 0,-141.4 115.3,-256.7 256.7,-256.7 141.7,0 256.7,115.3 256.7,256.7 0,141.7 -115,256.7 -256.7,256.7 z m 0,-827.6 c -314.6,0 -570.9,256.3 -570.9,570.9 0,314.9 256.3,570.9 570.9,570.9 314.9,0 570.9,-256 570.9,-570.9 0,-314.6 -256,-570.9 -570.9,-570.9 z m 0,1264.4 c -382.2,0 -693.5,-311 -693.5,-693.5 0,-382.2 311.3,-693.5 693.5,-693.5 382.5,0 693.5,311.3 693.5,693.5 0,382.5 -311,693.5 -693.5,693.5 z m 0,-827.6 c -73.8,0 -134.1,60.3 -134.1,134.1 0,74.1 60.3,134.1 134.1,134.1 74.1,0 134.1,-60 134.1,-134.1 0,-73.8 -60,-134.1 -134.1,-134.1 z m 0,390.8 c -141.4,0 -256.7,-115 -256.7,-256.7 0,-141.4 115.3,-256.7 256.7,-256.7 141.7,0 256.7,115.3 256.7,256.7 0,141.7 -115,256.7 -256.7,256.7 z m 0,-390.8 c -73.8,0 -134.1,60.3 -134.1,134.1 0,74.1 60.3,134.1 134.1,134.1 74.1,0 134.1,-60 134.1,-134.1 0,-73.8 -60,-134.1 -134.1,-134.1 z m 0,390.8 c -141.4,0 -256.7,-115 -256.7,-256.7 0,-141.4 115.3,-256.7 256.7,-256.7 141.7,0 256.7,115.3 256.7,256.7 0,141.7 -115,256.7 -256.7,256.7 z m 0,-390.8 c -73.8,0 -134.1,60.3 -134.1,134.1 0,74.1 60.3,134.1 134.1,134.1 74.1,0 134.1,-60 134.1,-134.1 0,-73.8 -60,-134.1 -134.1,-134.1 z m 0,390.8 c -141.4,0 -256.7,-115 -256.7,-256.7 0,-141.4 115.3,-256.7 256.7,-256.7 141.7,0 256.7,115.3 256.7,256.7 0,141.7 -115,256.7 -256.7,256.7 z m 0,-390.8 c -73.8,0 -134.1,60.3 -134.1,134.1 0,74.1 60.3,134.1 134.1,134.1 74.1,0 134.1,-60 134.1,-134.1 0,-73.8 -60,-134.1 -134.1,-134.1 z m 0,390.8 c -141.4,0 -256.7,-115 -256.7,-256.7 0,-141.4 115.3,-256.7 256.7,-256.7 141.7,0 256.7,115.3 256.7,256.7 0,141.7 -115,256.7 -256.7,256.7 z m 0,-390.8 c -73.8,0 -134.1,60.3 -134.1,134.1 0,74.1 60.3,134.1 134.1,134.1 74.1,0 134.1,-60 134.1,-134.1 0,-73.8 -60,-134.1 -134.1,-134.1 z m 0,390.8 c -141.4,0 -256.7,-115 -256.7,-256.7 0,-141.4 115.3,-256.7 256.7,-256.7 141.7,0 256.7,115.3 256.7,256.7 0,141.7 -115,256.7 -256.7,256.7 z m 0,-390.8 c -73.8,0 -134.1,60.3 -134.1,134.1 0,74.1 60.3,134.1 134.1,134.1 74.1,0 134.1,-60 134.1,-134.1 0,-73.8 -60,-134.1 -134.1,-134.1 z m 0,390.8 c -141.4,0 -256.7,-115 -256.7,-256.7 0,-141.4 115.3,-256.7 256.7,-256.7 141.7,0 256.7,115.3 256.7,256.7 0,141.7 -115,256.7 -256.7,256.7 z m -622.8,-1352.7 c -393.3,223.8 -637.6,643.8 -637.6,1096 0,441.4 224.5,843 600.8,1074.4 28.9,17.7 37.9,55.4 20.2,84.2 -17.7,29 -55.4,37.9 -84.4,20.2 -412.9,-253.7 -659.2,-694.4 -659.2,-1178.8 0,-496.1 267.9,-956.8 699.7,-1202.7 9.4,-5.3 20,-8.1 30.1,-8.1 21.4,0 42.1,11.3 53.4,31.1 16.7,29.4 6.4,66.9 -23,83.7 z m -661.5,-13.3 c -266.4,307.7 -412.9,701.8 -412.9,1109.3 0,397 139.8,783.2 394,1087.3 21.6,26 18.2,64.6 -7.8,86.3 -26,21.8 -64.7,18.4 -86.3,-7.6 -272.6,-326.2 -422.5,-740.2 -422.5,-1166 0,-437 157.1,-859.3 442.8,-1189.4 11.9,-14 29.2,-21.4 46.2,-21.4 14.3,0 28.5,5.1 40.2,15 25.6,22.3 28.3,61 6.3,86.5"
         style="fill:#282f39;fill-opacity:1;fill-rule:nonzero;stroke:none"
         id="path22" />
      <path
         d="m 27040.2,7276.2 h -1534.4 v 199.4 h 1530.8 l 3.6,-199.4"
         style="fill:#b3804b;fill-opacity:1;fill-rule:nonzero;stroke:none"
         id="path24" />
      <path
         d="m 27972.2,9270.4 c -92.4,-294 -392.8,-906.9 -436.8,-996.2 l -474.2,-348.7 c -20.3,-14.9 -32.2,-38.9 -31.8,-64.2 l 4.9,-263.1 h -1528.5 v 211.2 c 0,17.7 -6.2,35.2 -17.2,48.7 -21.6,26.7 -210.3,266.8 -210.3,505.8 0,140.1 14.5,543.1 28.6,932.7 14.2,394.2 27.6,766.9 27.6,899.3 0,82.9 23.7,139.7 70.6,168.9 38.2,23.7 88.8,29.6 141,24.4 0.5,0 0.9,-0.3 1.4,-0.3 h 0.9 c 38.9,-4.1 78.4,-14.5 113.8,-28 v -886.7 c 0,-33.8 27.4,-61.2 61.2,-61.2 34.1,0 61.4,27.4 61.4,61.2 v 921.2 c 0.2,3 0.2,6.2 0,9.2 v 228.4 c 0,97 78.9,175.9 175.8,175.9 97,0 175.9,-78.9 175.9,-175.9 V 9474.2 c 0,-33.8 27.4,-61.2 61.2,-61.2 34.1,0 61.4,27.4 61.4,61.2 V 10633 c 0,3 -0.4,5.7 -0.4,8.7 0,1.4 0.4,2.8 0.4,4.4 v 98.7 c 0,96.8 78.9,175.7 175.7,175.7 97.1,0 176,-78.9 176,-175.7 V 9641.6 c 0,-33.8 27.4,-61.2 61.2,-61.2 34,0 61.4,27.4 61.4,61.2 v 907.9 c 0,96.8 78.9,175.7 175.7,175.7 97.1,0 176,-78.9 176,-175.7 V 9213.1 c 0,-9 1.6,-17.7 4.6,-26.2 l 65.5,-184 c 10.4,-29.2 37.1,-49.5 68.1,-51.5 31.1,-2.6 60.1,14 74.3,41.4 108.4,207.7 274.6,448.3 416.6,503 121.9,30.4 217.3,24.4 255.7,-16.1 42.1,-44.9 24.7,-138.5 2.3,-209.3"
         style="fill:#b3804b;fill-opacity:1;fill-rule:nonzero;stroke:none"
         id="path26" />
      <path
         d="m 24922.5,10479.3 c 0,-382.2 -311,-693.5 -693.5,-693.5 -382.2,0 -693.5,311.3 -693.5,693.5 0,382.5 311.3,693.5 693.5,693.5 382.5,0 693.5,-311 693.5,-693.5 z M 23629.2,9299.6 c -11.3,-19.8 -32,-31.1 -53.4,-31.1 -10.1,0 -20.7,2.8 -30.1,8.1 -431.8,245.9 -699.7,706.6 -699.7,1202.7 0,484.4 246.3,925.1 659.2,1178.8 29,17.7 66.7,8.8 84.4,-20.2 17.7,-28.8 8.7,-66.5 -20.2,-84.2 -376.3,-231.4 -600.8,-633 -600.8,-1074.4 0,-452.2 244.3,-872.2 637.6,-1096 29.4,-16.8 39.7,-54.3 23,-83.7 z m -690.8,-16.1 c -11.7,-9.9 -25.9,-15 -40.2,-15 -17,0 -34.3,7.4 -46.2,21.4 -285.7,330.1 -442.8,752.4 -442.8,1189.4 0,425.8 149.9,839.8 422.5,1166 21.6,26 60.3,29.4 86.3,7.6 26,-21.7 29.4,-60.3 7.8,-86.3 -254.2,-304.1 -394,-690.3 -394,-1087.3 0,-407.5 146.5,-801.6 412.9,-1109.3 22,-25.5 19.3,-64.2 -6.3,-86.5 z m 1290.6,3387.6 c -1208.4,0 -2191.5,-983.3 -2191.5,-2191.8 0,-1208.5 983.1,-2191.5 2191.5,-2191.5 325.3,0 637.4,69.4 928.8,206.1 4.4,190.7 15.7,502.8 26.5,807.1 2.3,61.6 4.6,123.7 6.7,184.9 -83.6,-81 -176.5,-151.1 -278.6,-209.3 -9.4,-5.3 -19.8,-8.1 -30.1,-8.1 -21.4,0 -42.1,11.3 -53.4,31.1 -16.8,29.4 -6.4,66.9 23,83.7 132.5,75.2 248.4,173 345.7,289.8 8.1,235.3 14.3,436.1 14.3,522.8 0,159.5 69.9,236.5 128.6,273.1 44.8,27.8 96.1,40.9 148.6,43.9 -11.1,428.1 -233.7,815.4 -600.4,1040.8 -28.7,17.7 -37.9,55.4 -20.2,84.2 17.9,29 55.6,37.9 84.4,20.2 406.2,-249.5 651.2,-680.1 659,-1155.1 17.2,-3.7 34,-7.8 50.3,-12.6 v 142.6 c 0,132.7 87,245.2 206.8,284 -63,236.9 -178.5,460.3 -336.7,649.6 -21.6,26 -18.2,64.6 7.8,86.3 26,21.8 64.6,18.1 86.5,-7.6 173.6,-208 299.5,-454.5 365.9,-715.6 63.3,-6.7 120.6,-33.6 165.9,-73.6 33.8,83.7 104.6,148.8 192,174.6 -249.8,969 -1113,1640.4 -2121.4,1640.4"
         style="fill:#ffe59b;fill-opacity:1;fill-rule:nonzero;stroke:none"
         id="path28" />
      <path
         d="m 24229,10222.6 c -141.4,0 -256.7,115.3 -256.7,256.7 0,141.7 115.3,256.7 256.7,256.7 141.7,0 256.7,-115 256.7,-256.7 0,-141.4 -115,-256.7 -256.7,-256.7 z m 0,827.6 c -314.6,0 -570.9,-256 -570.9,-570.9 0,-314.6 256.3,-570.9 570.9,-570.9 314.9,0 570.9,256.3 570.9,570.9 0,314.9 -256,570.9 -570.9,570.9"
         style="fill:#b1e0f4;fill-opacity:1;fill-rule:nonzero;stroke:none"
         id="path30" />
      <path
         d="m 24363.1,10479.3 c 0,-73.8 -60,-134.1 -134.1,-134.1 -73.8,0 -134.1,60.3 -134.1,134.1 0,74.1 60.3,134.1 134.1,134.1 74.1,0 134.1,-60 134.1,-134.1"
         style="fill:#b1e0f4;fill-opacity:1;fill-rule:nonzero;stroke:none"
         id="path32" />
      <path
         d="m 4173.39,9908.5 c -314.79,0 -570.89,256.1 -570.89,570.9 0,314.8 256.1,570.9 570.89,570.9 314.79,0 570.9,-256.1 570.9,-570.9 0,-314.8 -256.11,-570.9 -570.9,-570.9 z m 0,1264.4 c -382.39,0 -693.49,-311.1 -693.49,-693.5 0,-382.4 311.1,-693.5 693.49,-693.5 382.4,0 693.5,311.1 693.5,693.5 0,382.4 -311.1,693.5 -693.5,693.5"
         style="fill:#282f39;fill-opacity:1;fill-rule:nonzero;stroke:none"
         id="path34" />
      <path
         d="m 4173.39,10345.3 c -73.94,0 -134.1,60.2 -134.1,134.1 0,73.9 60.16,134.1 134.1,134.1 73.95,0 134.11,-60.2 134.11,-134.1 0,-73.9 -60.16,-134.1 -134.11,-134.1 z m 0,390.8 c -141.54,0 -256.71,-115.2 -256.71,-256.7 0,-141.5 115.17,-256.7 256.71,-256.7 141.56,0 256.71,115.2 256.71,256.7 0,141.5 -115.15,256.7 -256.71,256.7"
         style="fill:#282f39;fill-opacity:1;fill-rule:nonzero;stroke:none"
         id="path36" />
      <path
         d="m 2476.04,10479.4 c 0,397 139.94,783.1 394.02,1087.2 21.72,25.9 18.26,64.6 -7.72,86.3 -26,21.7 -64.65,18.3 -86.35,-7.7 -272.49,-326.1 -422.55,-740.1 -422.55,-1165.8 0,-437 157.24,-859.5 442.77,-1189.6 12.11,-14 29.2,-21.1 46.38,-21.1 14.22,0 28.49,4.9 40.08,14.9 25.62,22.1 28.41,60.9 6.26,86.5 -266.25,307.8 -412.89,701.7 -412.89,1109.3"
         style="fill:#282f39;fill-opacity:1;fill-rule:nonzero;stroke:none"
         id="path38" />
      <path
         d="m 3550.62,9383.2 c -393.4,224 -637.78,644 -637.78,1096.2 0,441.4 224.64,843 600.91,1074.2 28.85,17.8 37.87,55.5 20.14,84.4 -17.73,28.8 -55.48,37.8 -84.33,20.1 -412.85,-253.7 -659.34,-694.4 -659.34,-1178.7 0,-496.1 268.12,-957 699.73,-1202.7 9.57,-5.5 19.99,-8.1 30.27,-8.1 21.32,0 42.04,11.2 53.33,31 16.76,29.4 6.48,66.9 -22.93,83.6"
         style="fill:#282f39;fill-opacity:1;fill-rule:nonzero;stroke:none"
         id="path40" />
      <path
         d="m 7916.55,9270.4 c -92.37,-293.9 -392.77,-907 -436.68,-996.1 l -474.26,-348.7 c -20.41,-15 -32.32,-39 -31.84,-64.3 l 4.85,-263.2 H 5450.15 v 211.2 c 0,17.8 -6.15,35.2 -17.28,48.9 -21.51,26.6 -210.16,266.7 -210.16,505.8 0,140.1 14.48,543 28.48,932.6 14.18,394.3 27.56,766.8 27.56,899.3 0,82.9 23.81,139.7 70.77,169 37.98,23.6 88.75,29.5 140.88,24.3 0.5,-0.1 0.97,-0.2 1.47,-0.2 0.27,0 0.55,0 0.82,-0.1 38.87,-4.1 78.38,-14.3 113.84,-28.1 v -886.5 c 0,-33.9 27.45,-61.3 61.31,-61.3 33.86,0 61.3,27.4 61.3,61.3 v 921 c 0.28,3.1 0.21,6.2 0,9.3 v 228.5 c 0,96.9 78.89,175.8 175.85,175.8 96.96,0 175.84,-78.9 175.84,-175.8 V 9474.3 c 0,-33.9 27.44,-61.3 61.3,-61.3 33.86,0 61.3,27.4 61.3,61.3 v 1158.8 c 0,2.9 -0.35,5.7 -0.43,8.6 0.1,1.5 0.43,2.9 0.43,4.3 v 98.7 c 0,96.9 78.88,175.8 175.84,175.8 96.96,0 175.84,-78.9 175.84,-175.8 v -195.3 -98.6 -809.1 c 0,-33.9 27.44,-61.3 61.31,-61.3 33.85,0 61.3,27.4 61.3,61.3 v 809.1 98.6 c 0,96.9 78.88,175.8 175.83,175.8 96.96,0 175.84,-78.9 175.84,-175.8 V 9213.1 c 0,-8.9 1.53,-17.8 4.54,-26.2 l 65.53,-183.9 c 10.44,-29.3 37.18,-49.6 68.12,-51.7 31.16,-2.4 60.07,14.1 74.38,41.6 108.43,207.5 274.72,448.2 416.56,502.8 121.93,30.4 217.4,24.5 255.66,-16 42.24,-44.8 24.59,-138.5 2.37,-209.3 z M 5450.15,7276.3 v 199.2 h 1530.74 l 3.67,-199.2 z m -3468.37,3203.1 c 0,1208.5 983.16,2191.6 2191.61,2191.6 1008.34,0 1871.53,-671.2 2121.44,-1640.2 -87.54,-25.9 -158.32,-90.9 -192.21,-174.7 -45.2,40.1 -102.43,66.9 -165.7,73.7 -66.47,261 -192.42,507.5 -366.11,715.4 -21.71,25.9 -60.37,29.4 -86.35,7.7 -25.98,-21.7 -29.45,-60.4 -7.74,-86.3 158.09,-189.2 273.68,-412.7 336.75,-649.6 -119.91,-38.7 -206.94,-151.3 -206.94,-283.9 v -142.8 c -16.32,4.9 -33.16,9.1 -50.34,12.7 -7.86,475 -252.82,905.5 -658.96,1155.1 -28.83,17.7 -66.59,8.7 -84.32,-20.1 -17.73,-28.9 -8.72,-66.6 20.13,-84.4 366.73,-225.4 589.33,-612.6 600.38,-1040.7 -52.5,-2.9 -103.84,-16 -148.75,-44 -58.63,-36.5 -128.52,-113.6 -128.52,-273 0,-86.6 -6.18,-287.5 -14.29,-522.8 -97.11,-116.9 -213.18,-214.4 -345.68,-289.9 -29.42,-16.7 -39.7,-54.2 -22.95,-83.6 11.31,-19.8 32.02,-31 53.34,-31 10.27,0 20.7,2.6 30.27,8.1 102.03,58.1 195.06,128.3 278.45,209.1 -2.18,-61.1 -4.41,-123.2 -6.62,-184.8 -10.94,-304.3 -22.16,-616.5 -26.59,-807 -291.4,-136.7 -603.58,-206.2 -928.69,-206.2 -1208.45,0 -2191.61,983.1 -2191.61,2191.6 z m 6021.55,-915.6 c -72.52,76.8 -202.82,94.2 -377.02,50.3 -2.92,-0.8 -5.77,-1.7 -9.04,-2.9 -177.42,-66.8 -342.18,-311 -435.65,-473.5 l -29.62,83.1 v 1328.6 c 0,164.5 -133.88,298.4 -298.45,298.4 -67.3,0 -129.27,-22.6 -179.26,-60.4 -18.97,131.4 -123.54,235.1 -255.3,252.8 -120.86,485 -400.99,924.1 -792.48,1240.3 -409.57,330.9 -925.63,513.1 -1453.12,513.1 -1276.06,0 -2314.22,-1038.1 -2314.22,-2314.2 0,-1276.1 1038.16,-2314.2 2314.22,-2314.2 323.3,0 634.55,65.1 926.82,193.3 2.44,-254.9 172.38,-494.1 227.33,-564.8 v -256.6 c 0,-0.1 -0.02,-0.2 -0.02,-0.3 0,-0.1 0.02,-0.1 0.02,-0.2 v -304.9 c 0,-43 34.99,-78 78,-78 h 1624.47 c 20.8,0 41.08,8.5 55.65,23.3 14.57,14.9 22.71,35.3 22.33,56.1 l -11.2,607.3 464.4,341.5 c 10.21,7.5 18.19,17 23.68,28.1 35.52,71.7 349.9,709.5 448.64,1023.7 46.65,148.4 36.5,259.5 -30.18,330.1"
         style="fill:#282f39;fill-opacity:1;fill-rule:nonzero;stroke:none"
         id="path42" />
      <path
         d="m 14247.7,10171.9 c -148.7,0.7 -268.4,125.3 -261.1,275.5 6.5,133.5 116.6,243 250.1,249 150.7,6.8 275.1,-114.1 274.4,-263.2 -0.6,-144.8 -118.8,-261.9 -263.4,-261.3 z m 41.7,844.6 c -360.2,24.5 -658.1,-279.9 -621.2,-643 27.5,-270.7 244.1,-489.2 514.5,-519.2 362.8,-40.1 669.9,255.1 648.6,615.5 -17.2,290.4 -251.7,527 -541.9,546.7"
         style="fill:#282f39;fill-opacity:1;fill-rule:nonzero;stroke:none"
         id="path46" />
    </g>
    <path
       d="m 14180.9,9728.5 c -338.4,31.8 -609.8,305.6 -638.5,644.2 -37.5,441.8 332.4,808.6 774.1,767.4 338.5,-31.6 610,-305.5 638.6,-644.3 37.3,-441.9 -332.8,-808.7 -774.2,-767.3 z M 13630.2,9231 c -11.5,-20.3 -32.9,-31.5 -54.5,-31.4 -10.6,0 -21.3,2.7 -31,8.3 -440,253.2 -712.1,725.5 -709.8,1232.7 2.1,495.1 256,944.3 679.2,1201.9 29.6,17.9 68.1,8.6 86.2,-21 18,-29.6 8.5,-68.1 -21,-86 -385.8,-234.9 -617.1,-644.2 -619.1,-1095.4 -2.1,-462.3 245.8,-892.8 647,-1123.6 30,-17.3 40.4,-55.5 23,-85.5 z m -706.2,-13.3 c -12,-10.2 -26.6,-15.1 -41.1,-15.1 -17.5,0.1 -35,7.5 -47.3,21.9 -290.4,338.6 -449.3,771.2 -447.3,1218.1 1.9,435.1 157.2,857.7 437.3,1189.7 22.1,26.5 61.7,29.8 88.3,7.5 26.4,-22.4 29.8,-61.8 7.5,-88.4 -261.2,-309.6 -406,-703.6 -407.8,-1109.4 -1.8,-416.6 146.3,-820.1 417.1,-1135.9 22.6,-26.3 19.5,-65.8 -6.7,-88.4 z m 2460.6,1200.9 c 46.2,28.5 98.9,41.7 152.4,44.5 -9.3,437.6 -235.3,834.3 -609.1,1066.4 -29.4,18.2 -38.4,56.8 -20.2,86.2 18.2,29.5 57,38.5 86.3,20.2 414,-256.9 662.8,-698.1 668.7,-1183.7 17.5,-3.7 34.5,-8.1 51.1,-13.2 l 0.7,146 c 0.6,135.5 90.1,250.4 212.9,289.4 -63.4,242.4 -180.7,471.2 -341.4,665.3 -22.1,26.8 -18.3,66.2 8.3,88.2 26.6,22.1 66.1,18.4 88.2,-8.2 176.5,-213.3 304.3,-465.7 371,-732.9 64.6,-7.1 123.2,-34.6 169,-75.8 35,85.4 107.8,151.6 197.3,177.5 27.4,8.1 56.4,12.3 86.5,12.1 13.8,0 27.2,-1 40.4,-3 -121.3,496.3 -405.6,946.3 -804.4,1271.4 -417.1,340.1 -944,528.6 -1483.1,531 -1304.5,5.7 -2370.4,-1050.8 -2376.2,-2355.2 -5.7,-1304.5 1050.8,-2370.4 2355.4,-2376.2 330.5,-1.4 649.1,63.4 948.4,193.3 -0.2,2 -0.2,3.8 -0.2,5.8 0.2,32.2 1.1,77.3 2.6,132.6 5.3,194.6 18.2,514 30.8,825 2.5,62.8 5.1,126.2 7.7,188.7 -85.4,-82.4 -181.2,-153.2 -285.7,-212.2 -9.8,-5.5 -20.6,-8.2 -31,-8.1 -21.8,0.1 -42.9,11.4 -54.4,31.9 -16.9,30.2 -6.4,68.4 23.8,85.3 135.7,76.6 254.8,175.4 354.7,294.2 9.3,240.8 16.5,446.4 16.9,535 0.7,162.9 72.7,241.4 132.6,278.5"
       style="fill:#282f39;fill-opacity:1;fill-rule:nonzero;stroke:none"
       id="path44"
       transform="scale(0.1)" />
    <path
       d="m 18068.3,9395.5 c -39.1,41.6 -136.6,48.1 -261.4,17.5 -145.3,-55.2 -316.3,-300.5 -428,-512.2 -14.8,-27.9 -44.4,-44.7 -76.3,-42.1 -31.5,2.3 -58.8,23.2 -69.4,53.1 l -66.2,188.3 c -3,8.6 -4.5,17.8 -4.5,26.9 l 6,1359.6 c 0.4,95.6 -71.2,179.6 -166.5,186.5 -104.6,7.5 -192.4,-75.2 -192.8,-178.5 l -4.1,-927.9 c -0.2,-35.9 -30.4,-64.4 -66.5,-62.3 -33.8,2 -59,32.5 -58.8,66.4 l 4.9,1123.9 c 0.4,99.2 -79.9,180.2 -179,180.6 h -4.3 c -2.3,-0.1 -4.4,-0.1 -6.8,-0.3 -94,-5.3 -169,-83.2 -169.4,-178.7 l -0.5,-100.8 c 0,-1.2 0,-2.7 -0.2,-3.9 0.2,-3.1 0.2,-6.1 0.2,-9.3 l -5.2,-1181.2 c -0.2,-34 -25.9,-64.3 -59.9,-65.7 -36.2,-1.6 -65.6,27.3 -65.5,62.8 l 5.2,1184.6 c 0.5,99 -79.9,180.1 -178.9,180.6 -3.4,0 -6.8,-0.2 -10.2,-0.1 -94.4,-5 -170,-83.3 -170.4,-178.9 l -1,-231.9 -0.1,-12.7 -4.1,-938.2 c -0.1,-29.9 -20.5,-57 -49.8,-62.9 -40.3,-8 -75.7,22.8 -75.5,61.7 l 3.5,803.2 c 0.3,66.7 -48.8,124.8 -115.1,132.2 -0.4,0 -0.8,0 -1.2,0.1 -2.4,0.4 -4.7,0.5 -7,0.5 -51.4,4.9 -101.4,-1.3 -139.1,-24.6 -48.1,-29.7 -72.7,-87.6 -73.1,-172.3 -0.6,-135.5 -15.9,-516.1 -32.1,-919.3 -13.5,-331.1 -27,-671.6 -31.6,-859.3 -0.2,-0.7 -0.2,-1.4 0,-2.1 -1,-37.1 -1.5,-68.1 -1.6,-91.7 -1.1,-244.4 190.6,-490.7 212.4,-517.9 11.4,-14.2 17.5,-31.9 17.5,-50.2 l -1,-215.7 1562.4,-6.9 -3.7,269 c -0.4,25.7 11.9,50.4 32.9,65.5 l 486.3,354.4 c 45.3,90.7 355.2,716.2 450.8,1016.3 23.1,72.2 41.6,167.9 -1.3,213.9"
       style="fill:#282f39;fill-opacity:1;fill-rule:nonzero;stroke:none"
       id="path48"
       transform="scale(0.1)" />
    <path
       d="m 15540.4,7357.9 -0.9,-203.7 1568.4,-6.9 -2.8,203.8 -1564.7,6.8"
       style="fill:#282f39;fill-opacity:1;fill-rule:nonzero;stroke:none"
       id="path50"
       transform="scale(0.1)" />
  </g>
</svg>
